<svg width="514" height="421" viewBox="0 0 514 421" fill="none" xmlns="http://www.w3.org/2000/svg">
<circle cx="257" cy="210" r="191.5" stroke="#818181" stroke-width="25"/>
<path d="M98.1108 412.275C103.039 416.912 110.764 416.736 115.548 411.952C120.867 406.633 120.362 397.866 114.649 392.972C50.936 338.395 34.4249 294.192 26.2735 221.247C24.5502 205.825 24.7255 190.19 27.5413 174.93C39.8997 107.956 66.2352 74.758 114.654 27.1839C118.637 23.2702 119.437 17.1159 116.529 12.3482C112.622 5.94055 103.818 4.68796 98.3447 9.82264C47.764 57.2733 22.4298 93.9956 8.43797 151.546C1.01548 182.076 -0.0176875 213.91 4.09578 245.059C12.4139 308.047 33.4685 351.452 98.1108 412.275Z" fill="#818181"/>
<path d="M395.706 408.372C392.445 403.298 393.486 396.589 398.027 392.62C449.125 347.963 472.274 310.529 483.049 250.972C489.649 214.49 487.552 176.537 475.629 141.433C460.628 97.2633 438.32 66.8305 397.384 26.6948C393.65 23.0334 392.786 17.3158 395.345 12.7547C398.987 6.26183 407.78 4.9168 413.142 10.0809C471.976 66.74 496.626 107.346 509.646 174.989C512.578 190.22 513.133 205.854 511.586 221.288C502.693 310.042 477.779 355.556 413.883 411.586C408.441 416.358 400.033 415.106 396.12 409.017L395.706 408.372Z" fill="#818181"/>
<path d="M98.1108 412.275C103.039 416.912 110.764 416.736 115.548 411.952C120.867 406.633 120.362 397.866 114.649 392.972C50.936 338.395 34.4249 294.192 26.2735 221.247C24.5502 205.825 24.7255 190.19 27.5413 174.93C39.8997 107.956 66.2352 74.758 114.654 27.1839C118.637 23.2702 119.437 17.1159 116.529 12.3482C112.622 5.94055 103.818 4.68796 98.3447 9.82264C47.764 57.2733 22.4298 93.9956 8.43797 151.546C1.01548 182.076 -0.0176875 213.91 4.09578 245.059C12.4139 308.047 33.4685 351.452 98.1108 412.275Z" stroke="#818181"/>
<path d="M395.706 408.372C392.445 403.298 393.486 396.589 398.027 392.62C449.125 347.963 472.274 310.529 483.049 250.972C489.649 214.49 487.552 176.537 475.629 141.433C460.628 97.2633 438.32 66.8305 397.384 26.6948C393.65 23.0334 392.786 17.3158 395.345 12.7547C398.987 6.26183 407.78 4.9168 413.142 10.0809C471.976 66.74 496.626 107.346 509.646 174.989C512.578 190.22 513.133 205.854 511.586 221.288C502.693 310.042 477.779 355.556 413.883 411.586C408.441 416.358 400.033 415.106 396.12 409.017L395.706 408.372Z" stroke="#818181"/>
<path d="M104.986 253.203L139.527 149.932H164.225L200.084 253.73C205.123 255.547 208.639 257.656 210.631 260.059L208.873 275H166.773L164.928 260.059C166.393 258.184 169.293 256.396 173.629 254.697L168.707 239.58H132.76L128.189 254.082C132.408 255.781 135.543 257.773 137.594 260.059L135.748 275H94.7031L92.9453 260.059C95.1719 257.305 99.1855 255.02 104.986 253.203ZM152.008 178.145L151.832 175.068H149.283C149.283 182.334 147.789 190.859 144.801 200.645L137.77 222.969H163.521L156.666 200.996C153.912 192.559 152.359 184.941 152.008 178.145ZM215.729 165.752L217.486 150.811H258.355C272.477 150.811 282.789 151.66 289.293 153.359C295.68 155.117 300.25 157.197 303.004 159.6C309.156 164.873 312.232 172.988 312.232 183.945C312.232 192.09 307.838 199.824 299.049 207.148C310.24 212.773 315.836 223.262 315.836 238.613C315.836 250.625 311.881 259.561 303.971 265.42C296.119 271.221 284.4 274.414 268.814 275H217.486L215.729 260.059C217.311 258.008 220.621 256.016 225.66 254.082V171.816C220.68 170.059 217.369 168.037 215.729 165.752ZM260.904 170.41H251.588V201.523H266.266C272.418 201.523 277.105 199.971 280.328 196.865C283.609 193.76 285.25 189.951 285.25 185.439C285.25 180.928 284.107 177.529 281.822 175.244C279.537 172.959 276.871 171.582 273.824 171.113C270.836 170.645 266.529 170.41 260.904 170.41ZM267.584 221.211H251.588V255.4H263.98C272.125 255.4 278.277 254.199 282.438 251.797C286.656 249.336 288.766 245 288.766 238.789C288.766 232.52 287.125 228.037 283.844 225.342C280.562 222.588 275.143 221.211 267.584 221.211ZM382.105 170.41C378.004 169.355 373.756 168.828 369.361 168.828C364.908 168.828 361.334 169.912 358.639 172.08C355.885 174.307 354.508 177.441 354.508 181.484C354.508 185.527 355.533 188.691 357.584 190.977C359.635 193.203 363.648 195.166 369.625 196.865L385.709 201.523C394.322 204.043 401.178 207.998 406.275 213.389C411.373 218.721 413.922 226.543 413.922 236.855C413.922 245 411.9 252.031 407.857 257.949C403.814 263.867 398.307 268.438 391.334 271.66C384.42 274.824 376.598 276.406 367.867 276.406C360.66 276.406 353.248 275.498 345.631 273.682C338.014 271.807 331.686 269.199 326.646 265.859V261.641C326.646 260.293 326.822 258.242 327.174 255.488C327.584 252.734 328.141 249.863 328.844 246.875C329.605 243.828 330.484 241.25 331.48 239.141H348.619C350.553 242.949 351.695 247.93 352.047 254.082C356.09 255.898 360.982 256.807 366.725 256.807C372.291 256.807 376.861 255.488 380.436 252.852C384.068 250.215 385.885 246.436 385.885 241.514C385.885 239.17 385.709 237.266 385.357 235.801C385.006 234.277 383.893 232.666 382.018 230.967C380.143 229.268 377.477 227.861 374.02 226.748L355.475 221.387C336.607 216.055 327.174 204.043 327.174 185.352C327.174 178.086 328.961 171.758 332.535 166.367C336.168 160.977 341.207 156.787 347.652 153.799C354.098 150.811 361.598 149.316 370.152 149.316C382.984 149.316 395.494 152.217 407.682 158.018V162.148C407.682 163.496 407.477 165.576 407.066 168.389C406.715 171.143 406.158 174.014 405.396 177.002C404.693 179.99 403.814 182.539 402.76 184.648H385.709C383.658 181.719 382.457 176.973 382.105 170.41Z" fill="#818181"/>
</svg>
