<svg width="275" height="467" viewBox="0 0 275 467" fill="none" xmlns="http://www.w3.org/2000/svg">
<path fill-rule="evenodd" clip-rule="evenodd" d="M14 1C6.8203 1 1 6.8203 1 14V453C1 460.18 6.8203 466 14 466H163.5C170.68 466 176.5 460.18 176.5 453V14C176.5 6.82029 170.68 1 163.5 1H14ZM160.5 18.5H17.5V449H160.5V434H137C132.306 434 128.5 430.194 128.5 425.5C128.5 420.806 132.306 417 137 417H160.5V402.5H104.5C99.8056 402.5 96 398.694 96 394C96 389.306 99.8056 385.5 104.5 385.5H160.5V370H137C132.306 370 128.5 366.194 128.5 361.5C128.5 356.806 132.306 353 137 353H160.5V338H104.75C99.9175 338 96 334.082 96 329.25C96 324.418 99.9175 320.5 104.75 320.5H160.5V305.5H137C132.306 305.5 128.5 301.694 128.5 297C128.5 292.306 132.306 288.5 137 288.5H160.5V274.5H104.25C99.6936 274.5 96 270.806 96 266.25C96 261.694 99.6936 258 104.25 258H160.5V241.5H136.5C132.082 241.5 128.5 237.918 128.5 233.5C128.5 229.082 132.082 225.5 136.5 225.5H160.5V210H104.5C99.8056 210 96 206.194 96 201.5C96 196.806 99.8056 193 104.5 193H160.5V178H137C132.306 178 128.5 174.194 128.5 169.5C128.5 164.806 132.306 161 137 161H160.5V146H104.5C99.8056 146 96 142.194 96 137.5C96 132.806 99.8056 129 104.5 129H160.5V113.5H137C132.306 113.5 128.5 109.694 128.5 105C128.5 100.306 132.306 96.5 137 96.5H160.5V81.5H104.25C99.6936 81.5 96 77.8064 96 73.25C96 68.6936 99.6936 65 104.25 65H160.5V50H136.25C131.418 50 127.5 46.0825 127.5 41.25C127.5 36.4175 131.418 32.5 136.25 32.5H160.5V18.5Z" fill="#818181"/>
<path d="M224.5 437L207.25 419.75C204.074 416.574 198.926 416.574 195.75 419.75C192.574 422.926 192.574 428.074 195.75 431.25L227.136 462.636C230.651 466.151 236.349 466.151 239.864 462.636L271.25 431.25C274.426 428.074 274.426 422.926 271.25 419.75C268.074 416.574 262.926 416.574 259.75 419.75L242.5 437V31.5L258.25 47.25C261.702 50.7018 267.298 50.7018 270.75 47.25C274.202 43.7982 274.202 38.2018 270.75 34.75L239.364 3.36397C235.849 -0.150751 230.151 -0.150758 226.636 3.36396L195.364 34.636C191.849 38.1508 191.877 43.8773 195.392 47.392C198.794 50.7943 204.298 50.9455 207.851 47.7011L224.5 32.5V437Z" fill="#818181"/>
<path fill-rule="evenodd" clip-rule="evenodd" d="M14 1C6.8203 1 1 6.8203 1 14V453C1 460.18 6.8203 466 14 466H163.5C170.68 466 176.5 460.18 176.5 453V14C176.5 6.82029 170.68 1 163.5 1H14ZM160.5 18.5H17.5V449H160.5V434H137C132.306 434 128.5 430.194 128.5 425.5C128.5 420.806 132.306 417 137 417H160.5V402.5H104.5C99.8056 402.5 96 398.694 96 394C96 389.306 99.8056 385.5 104.5 385.5H160.5V370H137C132.306 370 128.5 366.194 128.5 361.5C128.5 356.806 132.306 353 137 353H160.5V338H104.75C99.9175 338 96 334.082 96 329.25C96 324.418 99.9175 320.5 104.75 320.5H160.5V305.5H137C132.306 305.5 128.5 301.694 128.5 297C128.5 292.306 132.306 288.5 137 288.5H160.5V274.5H104.25C99.6936 274.5 96 270.806 96 266.25C96 261.694 99.6936 258 104.25 258H160.5V241.5H136.5C132.082 241.5 128.5 237.918 128.5 233.5C128.5 229.082 132.082 225.5 136.5 225.5H160.5V210H104.5C99.8056 210 96 206.194 96 201.5C96 196.806 99.8056 193 104.5 193H160.5V178H137C132.306 178 128.5 174.194 128.5 169.5C128.5 164.806 132.306 161 137 161H160.5V146H104.5C99.8056 146 96 142.194 96 137.5C96 132.806 99.8056 129 104.5 129H160.5V113.5H137C132.306 113.5 128.5 109.694 128.5 105C128.5 100.306 132.306 96.5 137 96.5H160.5V81.5H104.25C99.6936 81.5 96 77.8064 96 73.25C96 68.6936 99.6936 65 104.25 65H160.5V50H136.25C131.418 50 127.5 46.0825 127.5 41.25C127.5 36.4175 131.418 32.5 136.25 32.5H160.5V18.5Z" stroke="#818181"/>
<path d="M224.5 437L207.25 419.75C204.074 416.574 198.926 416.574 195.75 419.75C192.574 422.926 192.574 428.074 195.75 431.25L227.136 462.636C230.651 466.151 236.349 466.151 239.864 462.636L271.25 431.25C274.426 428.074 274.426 422.926 271.25 419.75C268.074 416.574 262.926 416.574 259.75 419.75L242.5 437V31.5L258.25 47.25C261.702 50.7018 267.298 50.7018 270.75 47.25C274.202 43.7982 274.202 38.2018 270.75 34.75L239.364 3.36397C235.849 -0.150751 230.151 -0.150758 226.636 3.36396L195.364 34.636C191.849 38.1508 191.877 43.8773 195.392 47.392C198.794 50.7943 204.298 50.9455 207.851 47.7011L224.5 32.5V437Z" stroke="#818181"/>
</svg>
