<svg width="261" height="163" viewBox="0 0 261 163" fill="none" xmlns="http://www.w3.org/2000/svg">
<path fill-rule="evenodd" clip-rule="evenodd" d="M29.5 162.5C13.4837 162.5 0.5 149.516 0.5 133.5V30C0.5 13.9837 13.4837 1 29.5 1H208.5C224.516 1 237.5 13.9837 237.5 30V32.5H240.5C251.546 32.5 260.5 41.4543 260.5 52.5V106.5C260.5 117.546 251.546 126.5 240.5 126.5H237.5V133.5C237.5 149.516 224.516 162.5 208.5 162.5H29.5ZM93.5691 91.5H108.5L104.022 129.886C103.406 135.159 110.348 137.63 113.203 133.154L152.095 72.1891C154.218 68.8607 151.828 64.5 147.88 64.5H132L136.837 32.1497C137.619 26.9201 130.808 24.2142 127.788 28.5549L89.4646 83.6447C87.1584 86.9599 89.5306 91.5 93.5691 91.5Z" fill="black"/>
<path d="M108.5 91.5H93.5691C89.5306 91.5 87.1584 86.9599 89.4646 83.6447L127.788 28.5549C130.808 24.2142 137.619 26.9201 136.837 32.1497L132 64.5H147.88C151.828 64.5 154.218 68.8607 152.095 72.1891L113.203 133.154C110.348 137.63 103.406 135.159 104.022 129.886L108.5 91.5Z" fill="white"/>
<path fill-rule="evenodd" clip-rule="evenodd" d="M29.5 162.5C13.4837 162.5 0.5 149.516 0.5 133.5V30C0.5 13.9837 13.4837 1 29.5 1H208.5C224.516 1 237.5 13.9837 237.5 30V32.5H240.5C251.546 32.5 260.5 41.4543 260.5 52.5V106.5C260.5 117.546 251.546 126.5 240.5 126.5H237.5V133.5C237.5 149.516 224.516 162.5 208.5 162.5H29.5ZM93.5691 91.5H108.5L104.022 129.886C103.406 135.159 110.348 137.63 113.203 133.154L152.095 72.1891C154.218 68.8607 151.828 64.5 147.88 64.5H132L136.837 32.1497C137.619 26.9201 130.808 24.2142 127.788 28.5549L89.4646 83.6447C87.1584 86.9599 89.5306 91.5 93.5691 91.5Z" stroke="black"/>
<path d="M108.5 91.5H93.5691C89.5306 91.5 87.1584 86.9599 89.4646 83.6447L127.788 28.5549C130.808 24.2142 137.619 26.9201 136.837 32.1497L132 64.5H147.88C151.828 64.5 154.218 68.8607 152.095 72.1891L113.203 133.154C110.348 137.63 103.406 135.159 104.022 129.886L108.5 91.5Z" stroke="black"/>
</svg>
