<svg width="268" height="442" viewBox="0 0 268 442" fill="none" xmlns="http://www.w3.org/2000/svg">
<path fill-rule="evenodd" clip-rule="evenodd" d="M96.9369 252.848L97.9314 440.999L266.999 314.095L141.193 221.489L266.999 126.923L96.9369 0.999024V189.64L27.0485 137.47C20.2546 132.398 10.6692 133.591 5.32548 140.173C-0.31653 147.122 0.93372 157.366 8.08155 162.754L85.9972 221.489L7.43823 279.863C0.55943 284.974 -0.893708 294.684 4.18741 301.586C9.27704 308.498 19.0024 309.986 25.9254 304.91L96.9369 252.848ZM128.761 64.6961V189.64L212.798 126.923L128.761 64.6961ZM128.761 378.282V252.848L212.798 314.095L128.761 378.282Z" fill="#818181" stroke="#818181"/>
</svg>
