<svg width="515" height="440" viewBox="0 0 515 440" fill="none" xmlns="http://www.w3.org/2000/svg">
<path fill-rule="evenodd" clip-rule="evenodd" d="M78.25 47.25C75.3505 44.3505 70.6495 44.3505 67.75 47.25L11.4427 103.557C-0.864099 115.864 -2.25835 135.344 8.17025 149.278L44.6589 198.032C47.2131 201.444 52.1987 201.801 55.2129 198.787L66.5 187.5L75.5 196.5C53.909 221.708 47.1691 239.451 47.7724 264.751C48.1007 278.518 52.4146 291.983 59.8631 303.565C75.3031 327.574 89.6615 335.845 114.5 341.5V326.5C100.877 322.898 91.4418 318.22 81.9308 308.433C68.6768 294.793 61.6753 275.787 62.1671 256.775C62.8004 232.289 72.462 222.352 86.5 207L97.5 218C85.079 230.609 78.7355 239.945 77.6312 262.241C77.2493 269.951 79.2717 277.651 83.5243 284.094C93.1827 298.726 102.003 304.327 115.5 310.5L121.5 298C115.863 295.943 111.455 293.679 106.913 289.902C96.0994 280.908 90.2421 266.457 92.3627 252.553C94.0871 241.247 99.2772 234.851 107 227.5L119.5 240L134 283.5C128.086 288.716 125.42 291.926 121.5 298L115.5 310.5C115.203 315.486 113.752 318.887 114.5 326.5V341.5C122.737 364.546 128.136 377.063 156 390V422.5C156 431.889 163.611 439.5 173 439.5H184.5C192.508 439.5 199 433.008 199 425H210.5C210.5 433.008 216.992 439.5 225 439.5H238C246.008 439.5 252.5 433.008 252.5 425H264C264 433.008 270.492 439.5 278.5 439.5H290.5C298.508 439.5 305 433.008 305 425H316.5V427.5C316.5 434.127 321.873 439.5 328.5 439.5H347C353.627 439.5 359 434.127 359 427.5V358C371.56 355.393 377.856 352.166 388 343.5C406.247 340.848 416.801 337.633 431.415 327.993C434.377 326.039 435.33 322.16 433.743 318.986C431.955 315.411 427.599 313.975 424.036 315.787L401 327.5L405.5 309C415.949 303.25 422.159 297.982 427.4 290.975C434.362 281.669 438.31 270.18 438.113 258.56C437.81 240.665 429.921 231.667 418.074 218.155L417.5 217.5L428 207C437.902 215.034 443.672 222.132 449.176 235.771C452.78 244.704 454.155 254.456 452.937 264.01C451.29 276.929 447.778 286.024 441.493 297.301C439.784 300.367 440.3 304.214 442.842 306.635C446.116 309.753 451.413 309.32 453.881 305.53C462.341 292.541 465.86 281.29 467.458 265.818C468.573 255.021 467.674 244.005 464.109 233.752C458.234 216.856 450.622 208.812 439.17 196.708L438.5 196L447.5 187L459.274 198.456C462.803 201.889 468.566 201.351 471.397 197.323L507.56 145.884C517.064 132.366 515.472 113.972 503.788 102.288L412.728 11.2279C400.212 -1.28775 380.455 -2.84874 366.13 7.5462L316.586 43.4956C312.604 46.3847 312.149 52.1489 315.627 55.6274L327 67L276.5 117.5H239L188.5 67L198.965 56.5355C202.412 53.0885 202.001 47.3863 198.095 44.4691L149.465 8.14683C135.133 -2.55787 115.115 -1.11532 102.466 11.5337L88.25 25.75C85.3505 28.6495 85.3505 33.3505 88.25 36.25C91.1495 39.1495 95.8505 39.1495 98.75 36.25L113.322 21.6776C120.101 14.8987 130.737 13.8835 138.676 19.2575L157.5 32L32.5 157L19.4479 139.692C13.7435 132.127 14.4837 121.516 21.183 114.817L78.25 57.75C81.1495 54.8505 81.1495 50.1495 78.25 47.25ZM51.8053 181.195C51.3785 181.622 50.6736 181.576 50.3056 181.097L41.5353 169.696C41.2291 169.298 41.2657 168.734 41.6209 168.379L169.352 40.6483C169.718 40.2815 170.305 40.2561 170.702 40.5897L181.665 49.7985C182.114 50.1757 182.143 50.8566 181.729 51.2713L51.8053 181.195ZM472.5 169L345.5 42L331.5 50.5L463 182L472.5 169ZM436.5 176.5L388 225L289 126L337.5 77.5L349 89L327.5 110.5C318.94 119.06 318.94 132.94 327.5 141.5C336.06 150.06 349.94 150.06 358.5 141.5L380 120L394.5 134.5L374 155C365.44 163.56 365.44 177.44 374 186C382.56 194.56 396.44 194.56 405 186L425.5 165.5L436.5 176.5ZM370 109.5L360 99.5L338.5 121C335.739 123.761 335.739 128.239 338.5 131C341.261 133.761 345.739 133.761 348.5 131L370 109.5ZM393.5 176C390.739 178.761 386.261 178.761 383.5 176C380.739 173.239 380.739 168.761 383.5 166L405 144.5L415 154.5L393.5 176ZM482.5 156L358.5 32L376.047 19.1322C383.211 13.8783 393.137 14.6374 399.42 20.9195L493.286 114.786C499.478 120.978 500.315 130.727 495.27 137.885L482.5 156ZM309.75 409.5C307.127 409.5 305 407.373 305 404.75V358H314.5V404.75C314.5 407.373 312.373 409.5 309.75 409.5ZM283.5 425C287.642 425 291 421.642 291 417.5V358H276V417.5C276 421.642 279.358 425 283.5 425ZM257 409.5C259.485 409.5 261.5 407.485 261.5 405V358H252.5V405C252.5 407.485 254.515 409.5 257 409.5ZM344 358H329V417.5C329 421.642 332.358 425 336.5 425C340.642 425 344 421.642 344 417.5V358ZM224 373.5L238 359.5V418C238 421.866 234.866 425 231 425C227.134 425 224 421.866 224 418V373.5ZM200.5 390V409.5H208.5V385.5L200.5 390ZM185 394H171V418C171 421.866 174.134 425 178 425C181.866 425 185 421.866 185 418V394ZM224 126L125 225L77.5 177.5L89.5 165.5L110.25 186.25C118.672 194.672 132.328 194.672 140.75 186.25C149.172 177.828 149.172 164.172 140.75 155.75L119.5 134.5L134 120L155.75 141.75C164.172 150.172 177.828 150.172 186.25 141.75C194.672 133.328 194.672 119.672 186.25 111.25L164 89L175.5 77.5L224 126ZM109.5 145L100 154.5L122.25 176.75C124.873 179.373 129.127 179.373 131.75 176.75C134.373 174.127 134.373 169.873 131.75 167.25L109.5 145ZM155 100L145 110L166 131C168.761 133.761 173.239 133.761 176 131C178.761 128.239 178.761 123.761 176 121L155 100ZM284.407 188.14C266.593 175.091 241.943 176.896 226.22 192.4L146 271.5L135 237L239 133H275L380 238L375 254.5L284.407 188.14ZM338.999 250.632C328.559 252.83 318.983 258.017 311.439 265.561L241.5 335.5C240.955 321.259 239.499 311.4 233.953 299.975C228.382 288.5 219.124 278.964 207.768 273.155C197.631 267.97 188.24 266.11 174.5 266L215.5 225C219.279 248.047 228.087 257.083 246.556 262.551C256.14 265.389 266.574 264.17 275.281 259.261C293.315 249.094 298.833 238.607 300.5 219.5L342 250L338.999 250.632ZM407 228L395 240L388 263.5C398.039 273.485 401.33 280.006 405 292.5C410.985 287.99 414.823 283.648 417.86 278.393C424.344 267.172 424.443 252.817 418.11 241.509C415.179 236.276 411.772 232.343 407 228ZM296.5 302.5L255.5 343.5H313C302.251 329.439 299.361 319.837 296.5 302.5ZM213.546 296.838C230.806 314.136 230.758 344.771 213.757 362.322C210.446 365.741 206.609 368.811 202.072 371.68C186.959 381.237 166.974 381.235 152.18 371.193C147.994 368.351 144.342 365.245 141.066 361.703C124.789 344.103 124.559 314.655 141.29 297.485C143.985 294.72 147.019 292.124 150.502 289.625C166.158 278.395 187.886 278.16 203.861 288.933C207.512 291.395 210.711 293.997 213.546 296.838ZM279.027 204.793C287.248 214.322 286.909 229.421 279.12 239.307C278.002 240.726 276.803 241.997 275.499 243.149C265.655 251.85 249.703 251.232 239.583 242.853C238.151 241.668 236.864 240.391 235.694 238.992C227.75 229.494 227.999 214.636 235.841 205.054C236.66 204.053 237.532 203.116 238.465 202.233C248.703 192.544 266.154 192.737 276.555 202.251C277.436 203.057 278.257 203.902 279.027 204.793ZM385.722 283.557C393.505 296.092 392.915 312.727 384.94 325.141C381.432 330.6 377.315 334.71 372.105 338.043C360.055 345.753 343.987 345.791 331.725 338.423C325.082 334.432 320.688 329.621 317.307 323.526C310.817 311.824 310.313 297.036 316.661 285.257C320.273 278.554 325.212 273.563 332.761 269.542C344.632 263.219 359.401 263.229 371.142 269.79C377.486 273.335 382.094 277.712 385.722 283.557Z" fill="#818181"/>
<path fill-rule="evenodd" clip-rule="evenodd" d="M337.019 321.06C345.037 328.152 357.963 328.124 365.946 320.992C367.061 319.996 368.1 318.91 369.082 317.704C375.475 309.861 376.015 297.907 369.678 290.018C368.691 288.788 367.608 287.67 366.402 286.638C358.161 279.584 345.172 280.281 336.934 287.338C336.023 288.118 335.176 288.935 334.382 289.8C327.251 297.574 327.429 310.275 334.291 318.288C335.137 319.275 336.04 320.195 337.019 321.06ZM357.107 298.484C359.933 301.471 359.721 306.577 356.826 309.499C353.962 312.39 348.727 312.099 345.868 309.203C342.941 306.239 343.206 301.665 346.167 298.735C349.005 295.926 354.024 295.417 356.858 298.229C356.942 298.313 357.025 298.398 357.107 298.484Z" fill="#818181"/>
<path fill-rule="evenodd" clip-rule="evenodd" d="M164.697 348.031C172.222 353.418 182.974 353.857 190.416 348.357C192.443 346.859 194.11 345.122 195.556 343.065C200.959 335.379 201.21 324.595 196.133 316.689C193.776 313.02 190.926 310.642 187.235 308.936C181.136 306.119 173.879 306.214 167.812 309.099C164.129 310.851 161.36 313.165 159.119 316.454C153.714 324.386 153.877 335.664 159.73 343.271C161.073 345.015 162.677 346.585 164.697 348.031ZM182.5 324C185.261 326.761 185.261 331.239 182.5 334C179.739 336.761 175.261 336.761 172.5 334C169.739 331.239 169.739 326.761 172.5 324C175.261 321.239 179.739 321.239 182.5 324Z" fill="#818181"/>
<path d="M114.5 341.5C89.6615 335.845 75.3031 327.574 59.8631 303.565C52.4146 291.983 48.1007 278.518 47.7724 264.751C47.1691 239.451 53.909 221.708 75.5 196.5L66.5 187.5L55.2129 198.787C52.1987 201.801 47.2131 201.444 44.6589 198.032L8.17025 149.278C-2.25835 135.344 -0.864099 115.864 11.4427 103.557L67.75 47.25C70.6495 44.3505 75.3505 44.3505 78.25 47.25V47.25C81.1495 50.1495 81.1495 54.8505 78.25 57.75L21.183 114.817C14.4837 121.516 13.7435 132.127 19.4479 139.692L32.5 157L157.5 32L138.676 19.2575C130.737 13.8835 120.101 14.8987 113.322 21.6776L98.75 36.25C95.8505 39.1495 91.1495 39.1495 88.25 36.25V36.25C85.3505 33.3505 85.3505 28.6495 88.25 25.75L102.466 11.5337C115.115 -1.11532 135.133 -2.55787 149.465 8.14682L198.095 44.4691C202.001 47.3863 202.412 53.0885 198.965 56.5355L188.5 67L239 117.5H276.5L327 67L315.627 55.6274C312.149 52.1489 312.604 46.3847 316.586 43.4956L366.13 7.5462C380.455 -2.84874 400.212 -1.28775 412.728 11.2279L503.788 102.288C515.472 113.972 517.064 132.366 507.56 145.884L471.397 197.323C468.566 201.351 462.803 201.889 459.274 198.456L447.5 187L438.5 196M114.5 341.5V326.5M114.5 341.5C122.737 364.546 128.136 377.063 156 390V422.5C156 431.889 163.611 439.5 173 439.5H184.5C192.508 439.5 199 433.008 199 425V425H210.5V425C210.5 433.008 216.992 439.5 225 439.5H238C246.008 439.5 252.5 433.008 252.5 425V425H264V425C264 433.008 270.492 439.5 278.5 439.5H290.5C298.508 439.5 305 433.008 305 425V425H316.5V427.5C316.5 434.127 321.873 439.5 328.5 439.5H347C353.627 439.5 359 434.127 359 427.5V358C371.56 355.393 377.856 352.166 388 343.5C406.247 340.848 416.801 337.633 431.415 327.993C434.377 326.039 435.33 322.16 433.743 318.986V318.986C431.955 315.411 427.599 313.975 424.036 315.787L401 327.5L405.5 309C415.949 303.25 422.159 297.982 427.4 290.975C434.362 281.669 438.31 270.18 438.113 258.56C437.81 240.665 429.921 231.667 418.074 218.155M114.5 326.5C100.877 322.898 91.4418 318.22 81.9308 308.433C68.6768 294.793 61.6753 275.787 62.1671 256.775C62.8004 232.289 72.462 222.352 86.5 207L97.5 218C85.079 230.609 78.7355 239.945 77.6312 262.241C77.2493 269.951 79.2717 277.651 83.5243 284.094C93.1827 298.726 102.003 304.327 115.5 310.5M114.5 326.5C113.752 318.887 115.203 315.486 115.5 310.5M115.5 310.5L121.5 298M121.5 298C115.863 295.943 111.455 293.679 106.913 289.902C96.0994 280.908 90.2421 266.457 92.3627 252.553C94.0871 241.247 99.2772 234.851 107 227.5L119.5 240L134 283.5C128.086 288.716 125.42 291.926 121.5 298ZM438.5 196L439.17 196.708M438.5 196C438.725 196.238 438.948 196.474 439.17 196.708M417.5 217.5L428 207C437.902 215.034 443.672 222.132 449.176 235.771C452.78 244.704 454.155 254.456 452.937 264.01C451.29 276.929 447.778 286.024 441.493 297.301C439.784 300.367 440.3 304.214 442.842 306.635V306.635C446.116 309.753 451.413 309.32 453.881 305.53C462.341 292.541 465.86 281.29 467.458 265.818C468.573 255.021 467.674 244.005 464.109 233.752C458.234 216.856 450.622 208.812 439.17 196.708M417.5 217.5L418.074 218.155M417.5 217.5C417.692 217.719 417.884 217.938 418.074 218.155M345.5 42L472.5 169L463 182L331.5 50.5L345.5 42ZM388 225L436.5 176.5L425.5 165.5L405 186C396.44 194.56 382.56 194.56 374 186V186C365.44 177.44 365.44 163.56 374 155L394.5 134.5L380 120L358.5 141.5C349.94 150.06 336.06 150.06 327.5 141.5V141.5C318.94 132.94 318.94 119.06 327.5 110.5L349 89L337.5 77.5L289 126L388 225ZM360 99.5L370 109.5L348.5 131C345.739 133.761 341.261 133.761 338.5 131V131C335.739 128.239 335.739 123.761 338.5 121L360 99.5ZM415 154.5L393.5 176C390.739 178.761 386.261 178.761 383.5 176V176C380.739 173.239 380.739 168.761 383.5 166L405 144.5L415 154.5ZM358.5 32L482.5 156L495.27 137.885C500.315 130.727 499.478 120.978 493.286 114.786L399.42 20.9195C393.137 14.6374 383.211 13.8783 376.047 19.1322L358.5 32ZM305 358V404.75C305 407.373 307.127 409.5 309.75 409.5V409.5C312.373 409.5 314.5 407.373 314.5 404.75V358H305ZM291 358V417.5C291 421.642 287.642 425 283.5 425V425C279.358 425 276 421.642 276 417.5V358H291ZM261.5 358V405C261.5 407.485 259.485 409.5 257 409.5V409.5C254.515 409.5 252.5 407.485 252.5 405V358H261.5ZM329 358H344V417.5C344 421.642 340.642 425 336.5 425V425C332.358 425 329 421.642 329 417.5V358ZM238 359.5L224 373.5V418C224 421.866 227.134 425 231 425V425C234.866 425 238 421.866 238 418V359.5ZM208.5 409.5H200.5V390L208.5 385.5V409.5ZM171 394H185V418C185 421.866 181.866 425 178 425V425C174.134 425 171 421.866 171 418V394ZM125 225L224 126L175.5 77.5L164 89L186.25 111.25C194.672 119.672 194.672 133.328 186.25 141.75V141.75C177.828 150.172 164.172 150.172 155.75 141.75L134 120L119.5 134.5L140.75 155.75C149.172 164.172 149.172 177.828 140.75 186.25V186.25C132.328 194.672 118.672 194.672 110.25 186.25L89.5 165.5L77.5 177.5L125 225ZM100 154.5L109.5 145L131.75 167.25C134.373 169.873 134.373 174.127 131.75 176.75V176.75C129.127 179.373 124.873 179.373 122.25 176.75L100 154.5ZM145 110L155 100L176 121C178.761 123.761 178.761 128.239 176 131V131C173.239 133.761 168.761 133.761 166 131L145 110ZM146 271.5L226.22 192.4C241.943 176.896 266.593 175.091 284.407 188.14L375 254.5L380 238L275 133H239L135 237L146 271.5ZM241.5 335.5L311.439 265.561C318.983 258.017 328.559 252.83 338.999 250.632L342 250L300.5 219.5C298.833 238.607 293.315 249.094 275.281 259.261C266.574 264.17 256.14 265.389 246.556 262.551C228.087 257.083 219.279 248.047 215.5 225L174.5 266C188.24 266.11 197.631 267.97 207.768 273.155C219.124 278.964 228.382 288.5 233.953 299.975C239.499 311.4 240.955 321.259 241.5 335.5ZM395 240L407 228C411.772 232.343 415.179 236.276 418.11 241.509C424.443 252.817 424.344 267.172 417.86 278.393C414.823 283.648 410.985 287.99 405 292.5C401.33 280.006 398.039 273.485 388 263.5L395 240ZM255.5 343.5L296.5 302.5C299.361 319.837 302.251 329.439 313 343.5H255.5ZM182.5 324V324C185.261 326.761 185.261 331.239 182.5 334V334C179.739 336.761 175.261 336.761 172.5 334V334C169.739 331.239 169.739 326.761 172.5 324V324C175.261 321.239 179.739 321.239 182.5 324ZM346.167 298.735V298.735C349.005 295.926 354.024 295.417 356.858 298.229C356.942 298.313 357.025 298.398 357.107 298.484C359.933 301.471 359.721 306.577 356.826 309.499V309.499C353.962 312.39 348.727 312.099 345.868 309.203V309.203C342.941 306.239 343.206 301.665 346.167 298.735ZM316.661 285.257C320.273 278.554 325.212 273.563 332.761 269.542C344.632 263.219 359.401 263.229 371.142 269.79C377.486 273.335 382.094 277.712 385.722 283.557C393.505 296.092 392.915 312.727 384.94 325.141C381.432 330.6 377.315 334.71 372.105 338.043C360.055 345.753 343.987 345.791 331.725 338.423C325.082 334.432 320.688 329.621 317.307 323.526C310.817 311.824 310.313 297.036 316.661 285.257ZM235.841 205.054C236.66 204.053 237.532 203.116 238.465 202.233C248.703 192.544 266.154 192.737 276.555 202.251C277.436 203.057 278.257 203.902 279.027 204.793C287.248 214.322 286.909 229.421 279.12 239.307C278.002 240.726 276.803 241.997 275.499 243.149C265.655 251.85 249.703 251.232 239.583 242.853C238.151 241.668 236.864 240.391 235.694 238.992C227.75 229.494 227.999 214.636 235.841 205.054ZM159.119 316.454C161.36 313.165 164.129 310.851 167.812 309.099C173.879 306.214 181.136 306.119 187.235 308.936C190.926 310.642 193.776 313.02 196.133 316.689C201.21 324.595 200.959 335.379 195.556 343.065C194.11 345.122 192.443 346.859 190.416 348.357C182.974 353.857 172.222 353.418 164.697 348.031C162.677 346.585 161.073 345.015 159.73 343.271C153.877 335.664 153.714 324.386 159.119 316.454ZM141.29 297.485C143.985 294.72 147.019 292.124 150.502 289.625C166.158 278.395 187.886 278.16 203.861 288.933C207.512 291.395 210.711 293.997 213.546 296.838C230.806 314.136 230.758 344.771 213.757 362.322C210.446 365.741 206.609 368.811 202.072 371.68C186.959 381.237 166.974 381.235 152.18 371.193C147.994 368.351 144.342 365.245 141.066 361.703C124.789 344.103 124.559 314.655 141.29 297.485ZM366.402 286.638C367.608 287.67 368.691 288.788 369.678 290.018C376.015 297.907 375.475 309.861 369.082 317.704C368.1 318.91 367.061 319.996 365.946 320.992C357.963 328.124 345.037 328.152 337.019 321.06C336.04 320.195 335.137 319.275 334.291 318.288C327.429 310.275 327.251 297.574 334.382 289.8C335.176 288.935 336.023 288.118 336.934 287.338C345.172 280.281 358.161 279.584 366.402 286.638ZM170.702 40.5897L181.665 49.7985C182.114 50.1757 182.143 50.8566 181.729 51.2713L51.8053 181.195C51.3785 181.622 50.6736 181.576 50.3056 181.097L41.5353 169.696C41.2291 169.298 41.2657 168.734 41.6209 168.379L169.352 40.6483C169.718 40.2815 170.305 40.2561 170.702 40.5897Z" stroke="#818181"/>
</svg>
