<svg width="513" height="292" viewBox="0 0 513 292" fill="none" xmlns="http://www.w3.org/2000/svg">
<path d="M144.25 170C140.246 170 137 173.246 137 177.25V186.25C137 190.254 140.246 193.5 144.25 193.5C148.254 193.5 151.5 190.254 151.5 186.25V177.25C151.5 173.246 148.254 170 144.25 170Z" fill="#818181"/>
<path d="M144.25 241.5C140.246 241.5 137 238.254 137 234.25V218.25C137 214.246 140.246 211 144.25 211C148.254 211 151.5 214.246 151.5 218.25V234.25C151.5 238.254 148.254 241.5 144.25 241.5Z" fill="#818181"/>
<path d="M144.25 81C140.246 81 137 77.7541 137 73.75V57.75C137 53.7459 140.246 50.5 144.25 50.5C148.254 50.5 151.5 53.7459 151.5 57.75V73.75C151.5 77.7541 148.254 81 144.25 81Z" fill="#818181"/>
<path d="M144.25 99C140.246 99 137 102.246 137 106.25V115.25C137 119.254 140.246 122.5 144.25 122.5C148.254 122.5 151.5 119.254 151.5 115.25V106.25C151.5 102.246 148.254 99 144.25 99Z" fill="#818181"/>
<path d="M368.75 81C364.746 81 361.5 77.7541 361.5 73.75V57.75C361.5 53.7459 364.746 50.5 368.75 50.5C372.754 50.5 376 53.7459 376 57.75V73.75C376 77.7541 372.754 81 368.75 81Z" fill="#818181"/>
<path d="M368.75 99C364.746 99 361.5 102.246 361.5 106.25V115.25C361.5 119.254 364.746 122.5 368.75 122.5C372.754 122.5 376 119.254 376 115.25V106.25C376 102.246 372.754 99 368.75 99Z" fill="#818181"/>
<path d="M368.75 170C364.746 170 361.5 173.246 361.5 177.25V186.25C361.5 190.254 364.746 193.5 368.75 193.5C372.754 193.5 376 190.254 376 186.25V177.25C376 173.246 372.754 170 368.75 170Z" fill="#818181"/>
<path d="M368.75 241.5C364.746 241.5 361.5 238.254 361.5 234.25V218.25C361.5 214.246 364.746 211 368.75 211C372.754 211 376 214.246 376 218.25V234.25C376 238.254 372.754 241.5 368.75 241.5Z" fill="#818181"/>
<path fill-rule="evenodd" clip-rule="evenodd" d="M1 290.5V1.5C202.455 32.6412 314.375 31.1565 512.5 1.5V290.5C304.401 260.678 192.472 260.515 1 290.5ZM16 20V273C198.307 244.775 303.697 246.419 496 273V20C307.809 46.4557 202.491 46.5308 16 20Z" fill="#818181"/>
<path d="M93.2348 175.765C90.5373 178.463 86.2451 178.706 83.2597 176.332L52.5445 151.899C48.4634 148.653 48.5294 142.432 52.6786 139.273L83.2793 115.975C86.2695 113.698 90.4823 113.982 93.1398 116.64C96.2789 119.779 96.025 124.941 92.5931 127.757L79.5 138.5H234.5C238.547 130.609 242.44 126.847 249.678 124.289C253.767 122.843 258.253 122.694 262.415 123.915C270.27 126.218 274.239 130.18 278.5 138.5H433L419.708 127.594C416.356 124.844 416.048 119.824 419.038 116.685C421.598 113.997 425.745 113.6 428.768 115.755L461.559 139.127C465.977 142.276 466.045 148.817 461.694 152.058L428.793 176.559C425.772 178.808 421.547 178.449 418.949 175.721C415.993 172.617 416.259 167.665 419.531 164.897L433 153.5H278.5C274.55 162.407 270.445 166.354 262.055 168.686C258.11 169.782 253.894 169.721 249.993 168.477C241.604 165.801 238.074 161.661 234.5 153.5H79.5L92.7759 164.733C96.1264 167.569 96.3383 172.662 93.2348 175.765Z" fill="#818181"/>
<path d="M144.25 170C140.246 170 137 173.246 137 177.25V186.25C137 190.254 140.246 193.5 144.25 193.5C148.254 193.5 151.5 190.254 151.5 186.25V177.25C151.5 173.246 148.254 170 144.25 170Z" stroke="#818181"/>
<path d="M144.25 241.5C140.246 241.5 137 238.254 137 234.25V218.25C137 214.246 140.246 211 144.25 211C148.254 211 151.5 214.246 151.5 218.25V234.25C151.5 238.254 148.254 241.5 144.25 241.5Z" stroke="#818181"/>
<path d="M144.25 81C140.246 81 137 77.7541 137 73.75V57.75C137 53.7459 140.246 50.5 144.25 50.5C148.254 50.5 151.5 53.7459 151.5 57.75V73.75C151.5 77.7541 148.254 81 144.25 81Z" stroke="#818181"/>
<path d="M144.25 99C140.246 99 137 102.246 137 106.25V115.25C137 119.254 140.246 122.5 144.25 122.5C148.254 122.5 151.5 119.254 151.5 115.25V106.25C151.5 102.246 148.254 99 144.25 99Z" stroke="#818181"/>
<path d="M368.75 81C364.746 81 361.5 77.7541 361.5 73.75V57.75C361.5 53.7459 364.746 50.5 368.75 50.5C372.754 50.5 376 53.7459 376 57.75V73.75C376 77.7541 372.754 81 368.75 81Z" stroke="#818181"/>
<path d="M368.75 99C364.746 99 361.5 102.246 361.5 106.25V115.25C361.5 119.254 364.746 122.5 368.75 122.5C372.754 122.5 376 119.254 376 115.25V106.25C376 102.246 372.754 99 368.75 99Z" stroke="#818181"/>
<path d="M368.75 170C364.746 170 361.5 173.246 361.5 177.25V186.25C361.5 190.254 364.746 193.5 368.75 193.5C372.754 193.5 376 190.254 376 186.25V177.25C376 173.246 372.754 170 368.75 170Z" stroke="#818181"/>
<path d="M368.75 241.5C364.746 241.5 361.5 238.254 361.5 234.25V218.25C361.5 214.246 364.746 211 368.75 211C372.754 211 376 214.246 376 218.25V234.25C376 238.254 372.754 241.5 368.75 241.5Z" stroke="#818181"/>
<path fill-rule="evenodd" clip-rule="evenodd" d="M1 290.5V1.5C202.455 32.6412 314.375 31.1565 512.5 1.5V290.5C304.401 260.678 192.472 260.515 1 290.5ZM16 20V273C198.307 244.775 303.697 246.419 496 273V20C307.809 46.4557 202.491 46.5308 16 20Z" stroke="#818181"/>
<path d="M93.2348 175.765C90.5373 178.463 86.2451 178.706 83.2597 176.332L52.5445 151.899C48.4634 148.653 48.5294 142.432 52.6786 139.273L83.2793 115.975C86.2695 113.698 90.4823 113.982 93.1398 116.64C96.2789 119.779 96.025 124.941 92.5931 127.757L79.5 138.5H234.5C238.547 130.609 242.44 126.847 249.678 124.289C253.767 122.843 258.253 122.694 262.415 123.915C270.27 126.218 274.239 130.18 278.5 138.5H433L419.708 127.594C416.356 124.844 416.048 119.824 419.038 116.685C421.598 113.997 425.745 113.6 428.768 115.755L461.559 139.127C465.977 142.276 466.045 148.817 461.694 152.058L428.793 176.559C425.772 178.808 421.547 178.449 418.949 175.721C415.993 172.617 416.259 167.665 419.531 164.897L433 153.5H278.5C274.55 162.407 270.445 166.354 262.055 168.686C258.11 169.782 253.894 169.721 249.993 168.477C241.604 165.801 238.074 161.661 234.5 153.5H79.5L92.7759 164.733C96.1264 167.569 96.3383 172.662 93.2348 175.765Z" stroke="#818181"/>
</svg>
