<svg width="88" height="88" viewBox="0 0 88 88" fill="none" xmlns="http://www.w3.org/2000/svg">
<circle cx="43.7229" cy="43.7229" r="4.30692" stroke="#818181" stroke-width="3"/>
<circle cx="43.7228" cy="43.7228" r="23.2648" stroke="#818181" stroke-width="3"/>
<circle cx="43.7222" cy="43.7222" r="30.438" stroke="#818181" stroke-width="3"/>
<circle cx="43.7227" cy="43.7227" r="42.2227" stroke="#818181" stroke-width="3"/>
<path d="M45.0893 81.8093H42.2712V84.4565H45.0893V81.8093Z" fill="#818181"/>
<path d="M54.312 80.3575L54.9952 83.0902L57.6425 82.1509L56.7031 79.589L54.312 80.3575Z" fill="#818181"/>
<path d="M32.3653 83.0902L29.6326 82.1509L30.7428 79.589L33.2193 80.3575L32.3653 83.0902Z" fill="#818181"/>
<path d="M22.4594 75.3192L20.7515 77.6249L18.702 76.0878L20.4099 73.8675L22.4594 75.3192Z" fill="#818181"/>
<path d="M13.749 67.1212L11.5287 68.8291L9.90621 66.865L12.1265 65.0717L13.749 67.1212Z" fill="#818181"/>
<path d="M7.94211 56.7029L5.20944 57.5569L4.44088 55.0804L7.00275 54.3118L7.94211 56.7029Z" fill="#818181"/>
<path d="M5.72182 42.271H2.81836V45.1745H5.72182V42.271Z" fill="#818181"/>
<path d="M7.25894 33.3045L4.44088 32.4505L5.20944 29.8886L7.94211 30.7426L7.25894 33.3045Z" fill="#818181"/>
<path d="M12.0411 22.5446L9.73542 20.7513L11.2725 18.3602L13.6636 20.3243L12.0411 22.5446Z" fill="#818181"/>
<path d="M20.1537 13.7488L18.4458 11.3577L20.7515 9.64981L22.5448 12.0409L20.1537 13.7488Z" fill="#818181"/>
<path d="M30.6574 7.94189L29.6326 4.95304L32.3653 4.26987L33.3047 7.17333L30.6574 7.94189Z" fill="#818181"/>
<path d="M42.3566 5.807V2.47656H45.0893V5.807H42.3566Z" fill="#818181"/>
<path d="M55.2514 4.01369L54.0558 7.17333L56.6177 7.94189L57.7279 4.95304L55.2514 4.01369Z" fill="#818181"/>
<path d="M66.9506 9.39362L64.9865 12.0409L67.2922 13.7488L69.1709 11.1015L66.9506 9.39362Z" fill="#818181"/>
<path d="M75.1486 22.5446L73.6115 20.4951L76.5149 18.3602L77.7959 20.4951L75.1486 22.5446Z" fill="#818181"/>
<path d="M80.2724 33.3045L79.4184 30.7426L82.7488 29.4616L83.6028 32.1089L80.2724 33.3045Z" fill="#818181"/>
<path d="M81.7241 45.0891V42.3564H85.2253V45.0891H81.7241Z" fill="#818181"/>
<path d="M80.3578 54.141L79.5038 56.8737L82.7488 57.813L83.6028 55.3366L80.3578 54.141Z" fill="#818181"/>
<path d="M78.0521 67.0358L75.3194 64.9009L73.6969 67.4628L76.3442 69.3415L78.0521 67.0358Z" fill="#818181"/>
<path d="M67.2068 73.6113L64.9865 75.3192L66.8652 77.9665L69.0855 76.2585L67.2068 73.6113Z" fill="#818181"/>
<path d="M47.8464 58.6234C48.3349 60.3933 48.9823 62.4547 49.6153 64.9009L52.2625 63.7908L50.3898 55.3262C50.2198 54.5577 50.165 53.5855 50.8852 53.2681C51.3431 53.0663 51.8942 53.2539 52.3233 53.5114L60.2043 58.24L61.9977 55.8489C56.8828 52.5628 52.8788 49.7108 50.8108 50.2982C47.5432 51.2997 46.937 55.3291 47.8464 58.6234Z" fill="#818181"/>
<path d="M39.688 57.776C39.2823 59.7417 38.6232 62.0827 37.916 64.9009L35.098 63.7908L36.992 54.8732C37.0943 54.3915 37.1386 53.7361 36.7874 53.3908C36.2465 52.859 35.4363 53.3274 34.7893 53.7236L27.4124 58.24L25.619 55.8489C29.9854 53.0712 32.9093 51.0504 35.2898 50.4618C35.946 50.2996 36.9006 50.3967 37.5345 50.6314C40.1907 51.6149 40.2606 55.0021 39.688 57.776Z" fill="#818181"/>
<path d="M28.5029 44.1037L21.6908 44.6621C21.2749 43.397 21.4684 42.7711 21.6908 41.7586L30.0875 41.1015C31.0101 41.0293 32.1011 40.7912 32.2673 39.8808C32.3938 39.1878 31.8318 38.5254 31.3032 38.0598L24.9359 32.4505L26.473 30.1448L31.0274 34.0693C33.3222 36.0468 36.0613 38.6876 34.7794 41.4322C33.7641 43.6056 30.8937 43.9078 28.5029 44.1037Z" fill="#818181"/>
<path d="M48.7192 29.6214L51.4086 23.1423L48.7613 22.203L45.5817 29.4294C45.2031 30.2898 44.6169 31.2976 43.6772 31.3172C42.6469 31.3385 42.0633 30.2355 41.6724 29.282L38.77 22.203L36.0373 23.1423L37.9067 27.5297C39.4291 31.1027 41.9109 35.8302 45.4307 34.1886C47.1086 33.406 48.0094 31.3314 48.7192 29.6214Z" fill="#818181"/>
<path d="M59.6605 44.2024L65.4989 44.6621L65.8405 41.7586L57.0503 41.0882C56.2192 41.0248 55.2171 40.6868 55.0205 39.8768C54.839 39.1293 55.3989 38.5021 55.9877 38.007L62.5954 32.4505L61.0583 30.1448L55.1057 35.2741C53.7327 36.4573 52.3717 37.5836 52.202 39.3881C51.896 42.6431 56.4013 43.9457 59.6605 44.2024Z" fill="#818181"/>
<path d="M45.0893 81.8093H42.2712V84.4565H45.0893V81.8093Z" stroke="#818181"/>
<path d="M54.312 80.3575L54.9952 83.0902L57.6425 82.1509L56.7031 79.589L54.312 80.3575Z" stroke="#818181"/>
<path d="M32.3653 83.0902L29.6326 82.1509L30.7428 79.589L33.2193 80.3575L32.3653 83.0902Z" stroke="#818181"/>
<path d="M22.4594 75.3192L20.7515 77.6249L18.702 76.0878L20.4099 73.8675L22.4594 75.3192Z" stroke="#818181"/>
<path d="M13.749 67.1212L11.5287 68.8291L9.90621 66.865L12.1265 65.0717L13.749 67.1212Z" stroke="#818181"/>
<path d="M7.94211 56.7029L5.20944 57.5569L4.44088 55.0804L7.00275 54.3118L7.94211 56.7029Z" stroke="#818181"/>
<path d="M5.72182 42.271H2.81836V45.1745H5.72182V42.271Z" stroke="#818181"/>
<path d="M7.25894 33.3045L4.44088 32.4505L5.20944 29.8886L7.94211 30.7426L7.25894 33.3045Z" stroke="#818181"/>
<path d="M12.0411 22.5446L9.73542 20.7513L11.2725 18.3602L13.6636 20.3243L12.0411 22.5446Z" stroke="#818181"/>
<path d="M20.1537 13.7488L18.4458 11.3577L20.7515 9.64981L22.5448 12.0409L20.1537 13.7488Z" stroke="#818181"/>
<path d="M30.6574 7.94189L29.6326 4.95304L32.3653 4.26987L33.3047 7.17333L30.6574 7.94189Z" stroke="#818181"/>
<path d="M42.3566 5.807V2.47656H45.0893V5.807H42.3566Z" stroke="#818181"/>
<path d="M55.2514 4.01369L54.0558 7.17333L56.6177 7.94189L57.7279 4.95304L55.2514 4.01369Z" stroke="#818181"/>
<path d="M66.9506 9.39362L64.9865 12.0409L67.2922 13.7488L69.1709 11.1015L66.9506 9.39362Z" stroke="#818181"/>
<path d="M75.1486 22.5446L73.6115 20.4951L76.5149 18.3602L77.7959 20.4951L75.1486 22.5446Z" stroke="#818181"/>
<path d="M80.2724 33.3045L79.4184 30.7426L82.7488 29.4616L83.6028 32.1089L80.2724 33.3045Z" stroke="#818181"/>
<path d="M81.7241 45.0891V42.3564H85.2253V45.0891H81.7241Z" stroke="#818181"/>
<path d="M80.3578 54.141L79.5038 56.8737L82.7488 57.813L83.6028 55.3366L80.3578 54.141Z" stroke="#818181"/>
<path d="M78.0521 67.0358L75.3194 64.9009L73.6969 67.4628L76.3442 69.3415L78.0521 67.0358Z" stroke="#818181"/>
<path d="M67.2068 73.6113L64.9865 75.3192L66.8652 77.9665L69.0855 76.2585L67.2068 73.6113Z" stroke="#818181"/>
<path d="M47.8464 58.6234C48.3349 60.3933 48.9823 62.4547 49.6153 64.9009L52.2625 63.7908L50.3898 55.3262C50.2198 54.5577 50.165 53.5855 50.8852 53.2681C51.3431 53.0663 51.8942 53.2539 52.3233 53.5114L60.2043 58.24L61.9977 55.8489C56.8828 52.5628 52.8788 49.7108 50.8108 50.2982C47.5432 51.2997 46.937 55.3291 47.8464 58.6234Z" stroke="#818181"/>
<path d="M39.688 57.776C39.2823 59.7417 38.6232 62.0827 37.916 64.9009L35.098 63.7908L36.992 54.8732C37.0943 54.3915 37.1386 53.7361 36.7874 53.3908C36.2465 52.859 35.4363 53.3274 34.7893 53.7236L27.4124 58.24L25.619 55.8489C29.9854 53.0712 32.9093 51.0504 35.2898 50.4618C35.946 50.2996 36.9006 50.3967 37.5345 50.6314C40.1907 51.6149 40.2606 55.0021 39.688 57.776Z" stroke="#818181"/>
<path d="M28.5029 44.1037L21.6908 44.6621C21.2749 43.397 21.4684 42.7711 21.6908 41.7586L30.0875 41.1015C31.0101 41.0293 32.1011 40.7912 32.2673 39.8808C32.3938 39.1878 31.8318 38.5254 31.3032 38.0598L24.9359 32.4505L26.473 30.1448L31.0274 34.0693C33.3222 36.0468 36.0613 38.6876 34.7794 41.4322C33.7641 43.6056 30.8937 43.9078 28.5029 44.1037Z" stroke="#818181"/>
<path d="M48.7192 29.6214L51.4086 23.1423L48.7613 22.203L45.5817 29.4294C45.2031 30.2898 44.6169 31.2976 43.6772 31.3172C42.6469 31.3385 42.0633 30.2355 41.6724 29.282L38.77 22.203L36.0373 23.1423L37.9067 27.5297C39.4291 31.1027 41.9109 35.8302 45.4307 34.1886C47.1086 33.406 48.0094 31.3314 48.7192 29.6214Z" stroke="#818181"/>
<path d="M59.6605 44.2024L65.4989 44.6621L65.8405 41.7586L57.0503 41.0882C56.2192 41.0248 55.2171 40.6868 55.0205 39.8768C54.839 39.1293 55.3989 38.5021 55.9877 38.007L62.5954 32.4505L61.0583 30.1448L55.1057 35.2741C53.7327 36.4573 52.3717 37.5836 52.202 39.3881C51.896 42.6431 56.4013 43.9457 59.6605 44.2024Z" stroke="#818181"/>
</svg>
