<svg width="429" height="301" viewBox="0 0 429 301" fill="none" xmlns="http://www.w3.org/2000/svg">
<path d="M44 143V160L114.25 230.25C122.396 238.396 135.604 238.396 143.75 230.25C151.896 222.104 151.896 208.896 143.75 200.75L117 174H312L284.655 201.345C276.779 209.221 276.613 221.94 284.281 230.02C292.122 238.281 305.186 238.588 313.407 230.705L384.5 162.528V140.472L313.145 72.0446C305.008 64.2409 292.124 64.3758 284.152 72.3482C276.06 80.4402 276.06 93.5598 284.152 101.652L312 129.5H117L144.249 102.251C152.416 94.0841 152.471 80.8608 144.374 72.626C136.18 64.2928 122.764 64.2364 114.499 72.5005L44 143Z" fill="#818181"/>
<path d="M22.5 1C10.6259 1 1 10.6259 1 22.5V279C1 290.874 10.6259 300.5 22.5 300.5C34.3741 300.5 44 290.874 44 279V160C39.3056 155.306 39.3056 147.694 44 143V22.5C44 10.6259 34.3741 1 22.5 1Z" fill="#818181"/>
<path d="M428.5 23C428.5 10.8497 418.65 1 406.5 1C394.35 1 384.5 10.8498 384.5 23V140.472C390.772 146.486 390.772 156.514 384.5 162.528V278.5C384.5 290.65 394.35 300.5 406.5 300.5C418.65 300.5 428.5 290.65 428.5 278.5V23Z" fill="#818181"/>
<path d="M384.5 140.472V162.528C390.772 156.514 390.772 146.486 384.5 140.472Z" fill="#818181"/>
<path d="M44 160V143C39.3056 147.694 39.3056 155.306 44 160Z" fill="#818181"/>
<path d="M44 143V160M44 143L114.499 72.5005C122.764 64.2364 136.18 64.2928 144.374 72.626V72.626C152.471 80.8608 152.416 94.0841 144.249 102.251L117 129.5H312L284.152 101.652C276.06 93.5598 276.06 80.4402 284.152 72.3482V72.3482C292.124 64.3758 305.008 64.2409 313.145 72.0446L384.5 140.472M44 143V143C39.3056 147.694 39.3056 155.306 44 160V160M44 143V22.5C44 10.6259 34.3741 1 22.5 1V1C10.6259 1 1 10.6259 1 22.5V279C1 290.874 10.6259 300.5 22.5 300.5V300.5C34.3741 300.5 44 290.874 44 279V160M44 160L114.25 230.25C122.396 238.396 135.604 238.396 143.75 230.25V230.25C151.896 222.104 151.896 208.896 143.75 200.75L117 174H312L284.655 201.345C276.779 209.221 276.613 221.94 284.281 230.02V230.02C292.122 238.281 305.187 238.588 313.407 230.705L384.5 162.528M384.5 162.528V140.472M384.5 162.528V278.5C384.5 290.65 394.35 300.5 406.5 300.5V300.5C418.65 300.5 428.5 290.65 428.5 278.5V23C428.5 10.8497 418.65 1 406.5 1V1C394.35 1 384.5 10.8498 384.5 23V140.472M384.5 162.528V162.528C390.772 156.514 390.772 146.486 384.5 140.472V140.472" stroke="#818181"/>
</svg>
