<svg width="408" height="363" viewBox="0 0 408 363" fill="none" xmlns="http://www.w3.org/2000/svg">
<path d="M104.5 361.5L142.25 323.75C146.53 319.47 146.53 312.53 142.25 308.25C137.97 303.97 131.03 303.97 126.75 308.25L104.5 330.5C78.3822 296.132 71.4427 275.129 66.5 236H96.75C102.687 236 107.5 231.187 107.5 225.25C107.5 219.313 102.687 214.5 96.75 214.5H66.5C70.5969 176.969 77.962 156.215 105 120L204 219C203.882 226.008 204.497 230.887 207.091 235.565C210.8 242.254 218.31 246.48 225.958 246.436C228.364 246.422 230.694 246.007 233.174 245.034C238.765 242.841 243.229 238.197 245.431 232.61C247.054 228.49 247.248 224.736 246.123 220.576C244.042 212.877 237.351 206.884 229.531 205.314C226.439 204.693 223.539 204.656 220 205L120 105C151.539 80.5168 172.002 71.4689 214.5 65.5V97C214.5 102.799 219.201 107.5 225 107.5C230.799 107.5 235.5 102.799 235.5 97V65.5C273.37 71.3983 294.468 76.05 330 105L308.25 126.75C303.97 131.03 303.97 137.97 308.25 142.25C312.53 146.53 319.47 146.53 323.75 142.25L345.5 120.5C368.722 148.613 380.135 166.104 384.5 214.5H353.75C347.813 214.5 343 219.313 343 225.25C343 231.187 347.813 236 353.75 236H384.5C379.69 277.915 369.577 297.843 345.5 330.5L323.5 308.5C319.358 304.358 312.642 304.358 308.5 308.5C304.358 312.642 304.358 319.358 308.5 323.5L345.5 360.5C375.555 329.135 393.741 306.653 402.643 267.866C409.312 238.806 408.679 208.217 401.353 179.315C395.828 157.516 386.85 138.313 370.464 115.256C360.652 101.449 348.658 89.2143 334.77 79.5158C315.028 65.7292 296.416 56.9476 272.98 49.9475C242.722 40.9099 210.223 40.5344 179.859 49.2061C161.967 54.3159 147.064 60.4514 132.533 68.5602C105.195 83.8146 82.7444 107.021 67.7686 134.512C63.7572 141.875 60.314 149.128 57.3052 156.556C39.6967 200.03 38.7985 250.297 57.3194 293.39C67.073 316.084 81.4935 336.427 104.5 361.5Z" fill="#818181"/>
<path d="M78 86C82.4183 86 86 82.4183 86 78V11.25C86 5.86523 81.6348 1.5 76.25 1.5C70.8652 1.5 66.5 5.86522 66.5 11.25V52.5L18 4.00001C14.134 0.134016 7.86599 0.134007 4 4C0.134007 7.86599 0.134007 14.134 4 18L50 64H12C5.92487 64 1 68.9249 1 75C1 81.0751 5.92487 86 12 86H78Z" fill="#818181"/>
<path d="M104.5 361.5L142.25 323.75C146.53 319.47 146.53 312.53 142.25 308.25C137.97 303.97 131.03 303.97 126.75 308.25L104.5 330.5C78.3822 296.132 71.4427 275.129 66.5 236H96.75C102.687 236 107.5 231.187 107.5 225.25C107.5 219.313 102.687 214.5 96.75 214.5H66.5C70.5969 176.969 77.962 156.215 105 120L204 219C203.882 226.008 204.497 230.887 207.091 235.565C210.8 242.254 218.31 246.48 225.958 246.436C228.364 246.422 230.694 246.007 233.174 245.034C238.765 242.841 243.229 238.197 245.431 232.61C247.054 228.49 247.248 224.736 246.123 220.576C244.042 212.877 237.351 206.884 229.531 205.314C226.439 204.693 223.539 204.656 220 205L120 105C151.539 80.5168 172.002 71.4689 214.5 65.5V97C214.5 102.799 219.201 107.5 225 107.5C230.799 107.5 235.5 102.799 235.5 97V65.5C273.37 71.3983 294.468 76.05 330 105L308.25 126.75C303.97 131.03 303.97 137.97 308.25 142.25C312.53 146.53 319.47 146.53 323.75 142.25L345.5 120.5C368.722 148.613 380.135 166.104 384.5 214.5H353.75C347.813 214.5 343 219.313 343 225.25C343 231.187 347.813 236 353.75 236H384.5C379.69 277.915 369.577 297.843 345.5 330.5L323.5 308.5C319.358 304.358 312.642 304.358 308.5 308.5C304.358 312.642 304.358 319.358 308.5 323.5L345.5 360.5C375.555 329.135 393.741 306.653 402.643 267.866C409.312 238.806 408.679 208.217 401.353 179.315C395.828 157.516 386.85 138.313 370.464 115.256C360.652 101.449 348.658 89.2143 334.77 79.5158C315.028 65.7292 296.416 56.9476 272.98 49.9475C242.722 40.9099 210.223 40.5344 179.859 49.2061C161.967 54.3159 147.064 60.4514 132.533 68.5602C105.195 83.8146 82.7444 107.021 67.7686 134.512C63.7572 141.875 60.314 149.128 57.3052 156.556C39.6967 200.03 38.7985 250.297 57.3194 293.39C67.073 316.084 81.4935 336.427 104.5 361.5Z" stroke="#818181"/>
<path d="M78 86C82.4183 86 86 82.4183 86 78V11.25C86 5.86523 81.6348 1.5 76.25 1.5C70.8652 1.5 66.5 5.86522 66.5 11.25V52.5L18 4.00001C14.134 0.134016 7.86599 0.134007 4 4C0.134007 7.86599 0.134007 14.134 4 18L50 64H12C5.92487 64 1 68.9249 1 75C1 81.0751 5.92487 86 12 86H78Z" stroke="#818181"/>
</svg>
