<svg width="115" height="89" viewBox="0 0 115 89" fill="none" xmlns="http://www.w3.org/2000/svg">
<path d="M96.5712 82.712C100.696 82.712 104.041 79.3678 104.041 75.2425V74.78H109.403V75.1678C109.403 82.2548 103.658 88 96.5712 88V88C89.4842 88 83.739 82.2548 83.739 75.1678V74.78H89.1017V75.2425C89.1017 79.3678 92.4459 82.712 96.5712 82.712V82.712Z" fill="#818181"/>
<path fill-rule="evenodd" clip-rule="evenodd" d="M104.041 74.78H89.1017H83.739H31.1333H25.8983H10.704H5.21356L5.46893 73.8987C3.58561 72.9533 2.56541 72.1153 1.00001 68.4848V49.0955C1.7053 42.8563 4.08569 39.5269 9.62718 33.9225C9.74772 33.8006 9.67155 33.5912 9.5005 33.5795L6.23503 33.3575C4.41796 32.6593 3.51374 31.863 2.85053 30.6168C2.16361 29.3261 2.02147 27.8274 2.02147 26.3653V26.3653C2.02147 24.6618 2.18897 22.8807 3.17478 21.4914C3.59763 20.8955 4.06609 20.4657 4.62674 20.1247C5.92776 19.3333 7.51928 19.2562 9.04211 19.2562V19.2562C9.88733 19.2562 10.7828 19.3234 11.4594 19.83C11.5811 19.9211 11.6914 20.0217 11.7916 20.1363C12.6257 21.0908 12.5579 22.8941 11.6174 23.744V23.744C10.9611 24.3371 10.1251 24.2923 9.2406 24.2923H8.77552C7.86607 24.2923 7.12882 25.0296 7.12882 25.939V26.2438C7.12882 27.3216 8.00254 28.1954 9.08034 28.1954H9.92934C11.211 28.1954 12.3279 27.323 12.6514 26.0829C15.4338 15.4189 17.1012 11.6663 19.8972 7.92475C21.8224 5.78551 23.0699 4.71451 25.8983 3.26628V3.26628C30.4913 0.857742 35.9082 1 41.0944 1H71.499C78.4497 1 85.9913 0.700501 91.5277 4.90304V4.90304V4.90304C97.3493 9.74957 99.6638 17.3553 101.88 24.5988L103.019 28.3213H105.792C106.87 28.3213 107.744 27.4475 107.744 26.3698V25.9771C107.744 25.1162 107.046 24.4182 106.185 24.4182V24.4182C104.809 24.4182 103.319 23.9699 102.763 22.7119C102.605 22.3535 102.523 21.9987 102.523 21.6474C102.52 19.7969 104.924 19.2562 106.774 19.2562H108.127C109.761 19.9628 110.812 20.6364 111.814 21.998C112.798 23.336 113.106 25.032 113.106 26.6929V26.6929C113.106 27.9366 112.947 29.2039 112.332 30.2851C111.811 31.2017 111.215 31.8378 110.455 32.3922C109.177 33.3235 107.557 33.6093 105.976 33.6093V33.6093C105.55 33.6093 105.341 34.1303 105.644 34.4304C110.97 39.7165 113.082 43.0496 114 49.0955V64.0984C114 66.6819 113.992 69.4416 112.396 71.4733C111.647 72.4267 110.702 73.2601 109.659 74.0246C109.281 74.3891 109.88 74.3824 109.403 74.78H104.041ZM6.10735 64.0781C6.10735 67.3463 8.75671 69.9957 12.0249 69.9957H37.5175H43.1356H71.7367H77.0994H102.592C105.86 69.9957 108.51 67.3463 108.51 64.0781V64.0781V58.6643V49.0955C108.017 46.2649 106.908 44.0029 103.922 40.4687C101.5 37.6025 99.4783 34.4009 98.3146 30.8334L96.0434 23.8704C94.0583 17.7844 92.6105 11.4069 86.9721 8.3757V8.3757C84.1934 6.8819 80.3412 6.28799 77.1865 6.28799H31.7718L31.6355 6.34944C26.8212 8.52009 24.0801 9.75597 21.6848 14.7236L14.9175 36.2533C12.8466 38.3436 11.1974 40.0701 9.90727 41.6204C6.2875 45.9702 6.10735 51.9372 6.10735 57.5962V58.6643V64.0781V64.0781Z" fill="#818181"/>
<path d="M10.704 74.78V75.1148C10.704 79.3106 14.1053 82.712 18.3011 82.712V82.712C22.4969 82.712 25.8983 79.3106 25.8983 75.1148V74.78H31.1333V75.0401C31.1333 82.1977 25.331 88 18.1735 88V88C11.0159 88 5.21356 82.1977 5.21356 75.0401V74.78H10.704Z" fill="#818181"/>
<path d="M71.7367 69.9957V63.3227H43.1356V69.9957H37.5175V67.7829C37.5175 62.2601 41.9947 57.7829 47.5175 57.7829H67.0994C72.6223 57.7829 77.0994 62.2601 77.0994 67.7829V69.9957H71.7367Z" fill="#818181"/>
<path d="M92.9322 53.754C92.9322 56.4659 95.1306 58.6643 97.8425 58.6643H108.51V64.0781H97.6383C91.9364 64.0781 87.3141 59.4559 87.3141 53.754V53.754C87.3141 48.0521 91.9364 43.4298 97.6383 43.4298H102.994C104.489 43.4298 105.701 44.6418 105.701 46.1368V46.1368C105.701 47.6318 104.489 48.8437 102.994 48.8437H97.8425C95.1306 48.8437 92.9322 51.0421 92.9322 53.754V53.754Z" fill="#818181"/>
<path d="M82.4621 46.1368C82.4621 44.6418 81.2502 43.4298 79.7552 43.4298H35.1171C33.6221 43.4298 32.4102 44.6418 32.4102 46.1368V46.1368C32.4102 47.6318 33.6221 48.8437 35.1171 48.8437H79.7552C81.2502 48.8437 82.4621 47.6318 82.4621 46.1368V46.1368Z" fill="#818181"/>
<path d="M27.1751 53.754C27.1751 59.4559 22.5529 64.0781 16.851 64.0781H6.10735V58.6643H17.0298C19.7417 58.6643 21.9401 56.4659 21.9401 53.754V53.754C21.9401 51.0421 19.7417 48.8437 17.0298 48.8437H12.0064C10.5114 48.8437 9.29944 47.6318 9.29944 46.1368V46.1368C9.29944 44.6418 10.5114 43.4298 12.0064 43.4298H16.851C22.5529 43.4298 27.1751 48.0521 27.1751 53.754V53.754Z" fill="#818181"/>
<path d="M92.9322 30.8975C92.9322 29.4051 91.7224 28.1954 90.2301 28.1954H24.7244C23.2212 28.1954 22.0349 29.4729 22.1462 30.972V30.972C22.2461 32.3184 23.3651 33.3612 24.7152 33.366L90.2204 33.5996C91.7165 33.6049 92.9322 32.3936 92.9322 30.8975V30.8975Z" fill="#818181"/>
<path d="M89.1017 74.78H104.041M89.1017 74.78V75.2425C89.1017 79.3678 92.4459 82.712 96.5712 82.712V82.712C100.696 82.712 104.041 79.3678 104.041 75.2425V74.78M89.1017 74.78H83.739M104.041 74.78H109.403M25.8983 74.78H10.704M25.8983 74.78V75.1148C25.8983 79.3106 22.4969 82.712 18.3011 82.712V82.712C14.1053 82.712 10.704 79.3106 10.704 75.1148V74.78M25.8983 74.78H31.1333M10.704 74.78H5.21356M31.1333 74.78V75.0401C31.1333 82.1977 25.331 88 18.1735 88V88C11.0159 88 5.21356 82.1977 5.21356 75.0401V74.78M31.1333 74.78H5.21356M31.1333 74.78H83.739M5.21356 74.78L5.46893 73.8987C3.58561 72.9533 2.56541 72.1153 1.00001 68.4848V49.0955C1.7053 42.8563 4.08569 39.5269 9.62718 33.9225C9.74772 33.8006 9.67155 33.5912 9.5005 33.5795L6.23503 33.3575C4.41796 32.6593 3.51374 31.863 2.85053 30.6168C2.16361 29.3261 2.02147 27.8274 2.02147 26.3653V26.3653C2.02147 24.6618 2.18897 22.8807 3.17478 21.4914C3.59763 20.8955 4.06609 20.4657 4.62674 20.1247C5.92776 19.3333 7.51928 19.2562 9.04211 19.2562V19.2562C9.88733 19.2562 10.7828 19.3234 11.4594 19.83C11.5811 19.9211 11.6914 20.0217 11.7916 20.1363C12.6257 21.0908 12.5579 22.8941 11.6174 23.744V23.744C10.9611 24.3371 10.1251 24.2923 9.2406 24.2923H8.77552C7.86607 24.2923 7.12882 25.0296 7.12882 25.939V26.2438C7.12882 27.3216 8.00254 28.1954 9.08034 28.1954H9.92934C11.211 28.1954 12.3279 27.323 12.6514 26.0829C15.4338 15.4189 17.1012 11.6663 19.8972 7.92475C21.8224 5.78551 23.0699 4.71451 25.8983 3.26628V3.26628C30.4913 0.857742 35.9082 1 41.0944 1H71.499C78.4497 1 85.9913 0.700501 91.5277 4.90304V4.90304V4.90304C97.3493 9.74957 99.6638 17.3553 101.88 24.5988L103.019 28.3213H105.792C106.87 28.3213 107.744 27.4475 107.744 26.3698V25.9771C107.744 25.1162 107.046 24.4182 106.185 24.4182V24.4182C104.809 24.4182 103.319 23.9699 102.763 22.7119C102.605 22.3535 102.523 21.9987 102.523 21.6474C102.52 19.7969 104.924 19.2562 106.774 19.2562H108.127C109.761 19.9628 110.812 20.6364 111.814 21.998C112.798 23.336 113.106 25.032 113.106 26.6929V26.6929C113.106 27.9366 112.947 29.2039 112.332 30.2851C111.811 31.2017 111.215 31.8378 110.455 32.3922C109.177 33.3235 107.557 33.6093 105.976 33.6093V33.6093C105.55 33.6093 105.341 34.1303 105.644 34.4304C110.97 39.7165 113.082 43.0496 114 49.0955V64.0984C114 66.6819 113.992 69.4416 112.396 71.4733C111.647 72.4267 110.702 73.2601 109.659 74.0246C109.281 74.3891 109.88 74.3824 109.403 74.78M83.739 74.78V75.1678C83.739 82.2548 89.4842 88 96.5712 88V88C103.658 88 109.403 82.2548 109.403 75.1678V74.78M83.739 74.78H109.403M31.7718 6.28799H77.1865C80.3412 6.28799 84.1934 6.8819 86.9721 8.3757V8.3757C92.6105 11.4069 94.0583 17.7844 96.0434 23.8704L98.3146 30.8334C99.4783 34.4009 101.5 37.6025 103.922 40.4687C106.908 44.0029 108.017 46.2649 108.51 49.0955V58.6643M31.7718 6.28799L31.6355 6.34944M31.7718 6.28799C31.7261 6.30856 31.6807 6.32904 31.6355 6.34944M31.6355 6.34944C26.8212 8.52009 24.0801 9.75597 21.6848 14.7236L14.9175 36.2533C12.8466 38.3436 11.1974 40.0701 9.90727 41.6204C6.2875 45.9702 6.10735 51.9372 6.10735 57.5962V58.6643M71.7367 69.9957V63.3227H43.1356V69.9957M71.7367 69.9957H43.1356M71.7367 69.9957H77.0994M43.1356 69.9957H37.5175M37.5175 69.9957H12.0249C8.75671 69.9957 6.10735 67.3463 6.10735 64.0781V64.0781M37.5175 69.9957V67.7829C37.5175 62.2601 41.9947 57.7829 47.5175 57.7829H67.0994C72.6223 57.7829 77.0994 62.2601 77.0994 67.7829V69.9957M77.0994 69.9957H102.592C105.86 69.9957 108.51 67.3463 108.51 64.0781V64.0781M108.51 58.6643H97.8425C95.1306 58.6643 92.9322 56.4659 92.9322 53.754V53.754C92.9322 51.0421 95.1306 48.8437 97.8425 48.8437H102.994C104.489 48.8437 105.701 47.6318 105.701 46.1368V46.1368C105.701 44.6418 104.489 43.4298 102.994 43.4298H97.6383C91.9364 43.4298 87.3141 48.0521 87.3141 53.754V53.754C87.3141 59.4559 91.9364 64.0781 97.6383 64.0781H108.51M108.51 58.6643V64.0781M6.10735 64.0781H16.851C22.5529 64.0781 27.1751 59.4559 27.1751 53.754V53.754C27.1751 48.0521 22.5529 43.4298 16.851 43.4298H12.0064C10.5114 43.4298 9.29944 44.6418 9.29944 46.1368V46.1368C9.29944 47.6318 10.5114 48.8437 12.0064 48.8437H17.0298C19.7417 48.8437 21.9401 51.0421 21.9401 53.754V53.754C21.9401 56.4659 19.7417 58.6643 17.0298 58.6643H6.10735M6.10735 64.0781V58.6643M90.2204 33.5996L24.7152 33.366C23.3651 33.3612 22.2461 32.3184 22.1462 30.972V30.972C22.0349 29.4729 23.2212 28.1954 24.7244 28.1954H90.2301C91.7224 28.1954 92.9322 29.4051 92.9322 30.8975V30.8975C92.9322 32.3936 91.7165 33.6049 90.2204 33.5996ZM79.7552 48.8437H35.1171C33.6221 48.8437 32.4102 47.6318 32.4102 46.1368V46.1368C32.4102 44.6418 33.6221 43.4298 35.1171 43.4298H79.7552C81.2502 43.4298 82.4621 44.6418 82.4621 46.1368V46.1368C82.4621 47.6318 81.2502 48.8437 79.7552 48.8437Z" stroke="#818181"/>
</svg>
