<svg width="316" height="514" viewBox="0 0 316 514" fill="none" xmlns="http://www.w3.org/2000/svg">
<path fill-rule="evenodd" clip-rule="evenodd" d="M35 281C52.0264 305.766 60.8817 320.31 67 355.5V443.5H91.5C92.5264 459.126 94.976 470.042 101.634 482.028C109.404 496.016 122.829 506.385 138.319 510.397C152.65 514.109 164.607 513.629 178.03 509.873C192.541 505.812 205.509 496.683 213.347 483.814C220.68 471.773 223.446 460.373 225 443.5H249V355.5C256.116 324.269 264.341 308.27 282.5 281H246C233.804 302.42 227.571 314.8 221.5 340H94.5C90.1931 315.5 84.0909 302.787 70 281H35ZM97.5 413V370.5H219.5V413H97.5ZM194 443.5H121.5C121.837 449.288 122.198 454.014 123.445 458.617C127.618 474.015 144.226 482.577 160.179 482.428C173.679 482.303 186.95 474.236 191.427 461.499C193.352 456.022 193.976 450.535 194 443.5Z" fill="#818181"/>
<path fill-rule="evenodd" clip-rule="evenodd" d="M210 253H253.329C260.082 253 266.874 252.313 273.234 250.045C281.021 247.269 287.023 243.894 292.706 239.026C302.993 230.215 309.596 217.721 312.517 204.495C315.722 189.984 315.345 177.178 312.442 161.979C309.357 145.822 300.831 130.382 286.626 122.088C281.277 118.965 275.695 116.74 268.775 115.096C265.289 114.268 261.698 114 258.115 114H210V253ZM268.96 219.571C265.541 222.592 261.032 224 256.469 224H240V143L255.81 143.669C260.926 143.885 265.871 145.578 270.045 148.545C278.099 154.267 283.725 162.997 284.557 172.841C285.122 179.516 285.145 185.501 284.612 192.988C284.282 197.611 282.837 202.104 280.35 206.015C277.095 211.133 273.964 215.15 268.96 219.571Z" fill="#818181"/>
<path d="M101.5 253H178.5V224H131V197.5H174.5V167.5H131V141.5H178.5V110H101.5V253Z" fill="#818181"/>
<path d="M70 253V224H31.5V110H1V253H70Z" fill="#818181"/>
<path d="M51.5 83.5H15C44.6954 41.7005 69.4355 21.0857 112.204 7.64464C137.771 -0.390615 165.251 -1.03186 191.328 5.15407C243.531 17.5377 270.174 39.186 301.5 83.5H265.5C240.518 54.173 217.253 42.7267 179.713 33.594C161.306 29.1162 141.929 30.1662 123.949 36.1293C95.7782 45.4721 75.2607 55.5292 51.5 83.5Z" fill="#818181"/>
<path fill-rule="evenodd" clip-rule="evenodd" d="M35 281C52.0264 305.766 60.8817 320.31 67 355.5V443.5H91.5C92.5264 459.126 94.976 470.042 101.634 482.028C109.404 496.016 122.829 506.385 138.319 510.397C152.65 514.109 164.607 513.629 178.03 509.873C192.541 505.812 205.509 496.683 213.347 483.814C220.68 471.773 223.446 460.373 225 443.5H249V355.5C256.116 324.269 264.341 308.27 282.5 281H246C233.804 302.42 227.571 314.8 221.5 340H94.5C90.1931 315.5 84.0909 302.787 70 281H35ZM97.5 413V370.5H219.5V413H97.5ZM194 443.5H121.5C121.837 449.288 122.198 454.014 123.445 458.617C127.618 474.015 144.226 482.577 160.179 482.428C173.679 482.303 186.95 474.236 191.427 461.499C193.352 456.022 193.976 450.535 194 443.5Z" stroke="#818181"/>
<path fill-rule="evenodd" clip-rule="evenodd" d="M210 253H253.329C260.082 253 266.874 252.313 273.234 250.045C281.021 247.269 287.023 243.894 292.706 239.026C302.993 230.215 309.596 217.721 312.517 204.495C315.722 189.984 315.345 177.178 312.442 161.979C309.357 145.822 300.831 130.382 286.626 122.088C281.277 118.965 275.695 116.74 268.775 115.096C265.289 114.268 261.698 114 258.115 114H210V253ZM268.96 219.571C265.541 222.592 261.032 224 256.469 224H240V143L255.81 143.669C260.926 143.885 265.871 145.578 270.045 148.545C278.099 154.267 283.725 162.997 284.557 172.841C285.122 179.516 285.145 185.501 284.612 192.988C284.282 197.611 282.837 202.104 280.35 206.015C277.095 211.133 273.964 215.15 268.96 219.571Z" stroke="#818181"/>
<path d="M101.5 253H178.5V224H131V197.5H174.5V167.5H131V141.5H178.5V110H101.5V253Z" stroke="#818181"/>
<path d="M70 253V224H31.5V110H1V253H70Z" stroke="#818181"/>
<path d="M51.5 83.5H15C44.6954 41.7005 69.4355 21.0857 112.204 7.64464C137.771 -0.390615 165.251 -1.03186 191.328 5.15407C243.531 17.5377 270.174 39.186 301.5 83.5H265.5C240.518 54.173 217.253 42.7267 179.713 33.594C161.306 29.1162 141.929 30.1662 123.949 36.1293C95.7782 45.4721 75.2607 55.5292 51.5 83.5Z" stroke="#818181"/>
</svg>
