<svg width="129" height="89" viewBox="0 0 129 89" fill="none" xmlns="http://www.w3.org/2000/svg">
<path fill-rule="evenodd" clip-rule="evenodd" d="M5.82409 83.28C10.278 89.3502 16.9398 88 24.4687 88H109.736C114.186 88 118.388 88.0391 121.834 85.2238C126.548 81.3736 127.598 73.9745 127.912 67.8968C128.256 61.2421 127.606 55.6797 125.662 46.9557C120.279 31.6016 115.877 24.8631 106.195 16.1058C89.1874 2.28084 71.1481 -1.33999 52.288 2.35802C41.8771 4.39933 32.2401 9.41202 23.9415 16.0215C17.4784 21.1691 12.9542 26.2019 9.52261 32.7479C1.80813 47.4638 -4.00516 69.8838 5.82409 83.28ZM114.462 80.0561H14.3222C1.41426 69.8708 9.80936 47.2946 18.7691 33.5077C20.4609 30.9045 22.4133 28.4805 24.7065 26.1303C34.0892 16.5146 46.661 9.69094 60.059 8.69624C62.8227 8.49107 65.7497 8.46975 69.1256 8.55918C85.3537 10.6297 92.2054 14.5194 102.728 23.5206C110.75 31.9479 113.958 37.1366 117.662 46.9557C120.947 57.6249 120.538 63.9291 118.995 75.2897C117.569 79.5317 116.476 79.8808 114.462 80.0561Z" fill="#818181"/>
<path d="M69.1256 53.311L87.7582 34.8097C90.3656 32.2208 94.601 28.9308 97.089 31.6345C99.242 33.9742 96.3192 37.6956 94.063 39.9359L75.126 58.7395C75.5941 60.2565 75.951 61.5629 76.0832 62.8098C76.7374 68.9806 70.3453 74.8181 64.1773 74.1383C63.7597 74.0923 63.3272 74.0228 62.8765 73.9293C59.859 73.3028 57.2338 72.109 55.4762 69.5775C53.0148 66.0323 53.097 60.3842 55.5874 56.8593C56.2319 55.9471 57.0482 55.185 58.0714 54.4547C59.5088 53.4288 61.1688 52.7087 62.9206 52.4845C65.2364 52.1881 67.0428 52.5788 69.1256 53.311Z" fill="#818181"/>
<path d="M25.4266 66.5035C27.5502 65.3465 27.5872 62.9134 27.8682 60.5115C28.8225 52.3544 30.8092 47.0707 34.1811 42.3094C38.9205 35.6171 45.7532 30.3534 53.5963 27.9586C60.0272 25.995 66.463 26.0175 74.5686 27.8494C76.807 28.3553 79.3409 29.2604 81.1998 27.9148C82.5854 26.9118 83.3302 24.923 82.6652 23.347C82.6317 23.2676 82.5947 23.1892 82.5541 23.1115C81.8404 21.7474 80.2258 21.1723 78.7387 20.7738C69.2966 18.2437 64.017 18.1837 59.0414 18.9493C53.5485 19.7944 48.1568 21.4301 43.2227 23.9876C37.068 27.1776 32.9308 30.9049 27.5231 37.82C21.2521 47.0696 20.459 52.9392 19.8574 61.2776C19.7193 63.1914 19.6085 65.473 21.2346 66.4915C21.26 66.5075 21.2858 66.5233 21.3121 66.5391C22.4204 67.2062 24.2907 67.1224 25.4266 66.5035Z" fill="#818181"/>
<path fill-rule="evenodd" clip-rule="evenodd" d="M5.82409 83.28C10.278 89.3502 16.9398 88 24.4687 88H109.736C114.186 88 118.388 88.0391 121.834 85.2238C126.548 81.3736 127.598 73.9745 127.912 67.8968C128.256 61.2421 127.606 55.6797 125.662 46.9557C120.279 31.6016 115.877 24.8631 106.195 16.1058C89.1874 2.28084 71.1481 -1.33999 52.288 2.35802C41.8771 4.39933 32.2401 9.41202 23.9415 16.0215C17.4784 21.1691 12.9542 26.2019 9.52261 32.7479C1.80813 47.4638 -4.00516 69.8838 5.82409 83.28ZM114.462 80.0561H14.3222C1.41426 69.8708 9.80936 47.2946 18.7691 33.5077C20.4609 30.9045 22.4133 28.4805 24.7065 26.1303C34.0892 16.5146 46.661 9.69094 60.059 8.69624C62.8227 8.49107 65.7497 8.46975 69.1256 8.55918C85.3537 10.6297 92.2054 14.5194 102.728 23.5206C110.75 31.9479 113.958 37.1366 117.662 46.9557C120.947 57.6249 120.538 63.9291 118.995 75.2897C117.569 79.5317 116.476 79.8808 114.462 80.0561Z" stroke="#818181"/>
<path d="M69.1256 53.311L87.7582 34.8097C90.3656 32.2208 94.601 28.9308 97.089 31.6345C99.242 33.9742 96.3192 37.6956 94.063 39.9359L75.126 58.7395C75.5941 60.2565 75.951 61.5629 76.0832 62.8098C76.7374 68.9806 70.3453 74.8181 64.1773 74.1383C63.7597 74.0923 63.3272 74.0228 62.8765 73.9293C59.859 73.3028 57.2338 72.109 55.4762 69.5775C53.0148 66.0323 53.097 60.3842 55.5874 56.8593C56.2319 55.9471 57.0482 55.185 58.0714 54.4547C59.5088 53.4288 61.1688 52.7087 62.9206 52.4845C65.2364 52.1881 67.0428 52.5788 69.1256 53.311Z" stroke="#818181"/>
<path d="M25.4266 66.5035C27.5502 65.3465 27.5872 62.9134 27.8682 60.5115C28.8225 52.3544 30.8092 47.0707 34.1811 42.3094C38.9205 35.6171 45.7532 30.3534 53.5963 27.9586C60.0272 25.995 66.463 26.0175 74.5686 27.8494C76.807 28.3553 79.3409 29.2604 81.1998 27.9148C82.5854 26.9118 83.3302 24.923 82.6652 23.347C82.6317 23.2676 82.5947 23.1892 82.5541 23.1115C81.8404 21.7474 80.2258 21.1723 78.7387 20.7738C69.2966 18.2437 64.017 18.1837 59.0414 18.9493C53.5485 19.7944 48.1568 21.4301 43.2227 23.9876C37.068 27.1776 32.9308 30.9049 27.5231 37.82C21.2521 47.0696 20.459 52.9392 19.8574 61.2776C19.7193 63.1914 19.6085 65.473 21.2346 66.4915C21.26 66.5075 21.2858 66.5233 21.3121 66.5391C22.4204 67.2062 24.2907 67.1224 25.4266 66.5035Z" stroke="#818181"/>
</svg>
