<svg width="183" height="130" viewBox="0 0 183 130" fill="none" xmlns="http://www.w3.org/2000/svg">
<path d="M3 103.381V73.8571M3 44.3333V73.8571M3 73.8571H26.6V44.3333M26.6 44.3333V103.381H44.3M26.6 44.3333H44.3M44.3 103.381V44.3333M44.3 103.381L62 127H138.7V109.286M44.3 44.3333L56.1 32.5238H82.65M82.65 32.5238H109.2L121 44.3333H138.7V62.0476M82.65 32.5238V3H56.1H109.2M138.7 62.0476H162.3M138.7 62.0476V109.286M162.3 62.0476V50.2381H174.1L180 62.0476V121.095L174.1 127H162.3V109.286M162.3 62.0476V109.286M162.3 109.286H138.7M86.6267 95.783L97.04 114.542C97.2538 114.927 97.7012 115.126 98.1312 115.03C113.07 111.705 118.768 107.1 120.936 92.028C120.977 91.7421 120.891 91.4465 120.701 91.2287L107.89 76.5303M86.6267 95.783L107.89 76.5303M86.6267 95.783L75.9394 76.5303M107.89 76.5303L95.2699 62.0516M75.9394 76.5303L68.0317 62.2849C67.9455 62.1295 67.902 61.9487 67.9075 61.7711C68.2298 51.3238 72.8427 49.517 82.0808 47.6849C82.431 47.6154 82.7944 47.7387 83.029 48.0078L95.2699 62.0516M75.9394 76.5303L95.2699 62.0516" stroke="#818181" stroke-width="6"/>
</svg>
