<svg width="517" height="450" viewBox="0 0 517 450" fill="none" xmlns="http://www.w3.org/2000/svg">
<path d="M115.649 146.187C113.894 149.426 115.029 153.474 118.212 155.328L175.92 188.957C179.247 190.896 183.518 189.698 185.351 186.313C187.106 183.074 185.971 179.026 182.788 177.172L125.08 143.543C121.753 141.604 117.482 142.802 115.649 146.187Z" fill="#818181"/>
<path fill-rule="evenodd" clip-rule="evenodd" d="M1 205C1 201.134 4.13401 198 8 198H29C46.1208 198 60 211.879 60 229V237.5H99.5C102.261 237.5 104.5 239.739 104.5 242.5V293H167.752C175.682 293 183.053 288.915 187.256 282.19L205.5 253L100.132 192.096C80.4749 180.734 73.7943 155.56 85.2309 135.947L145.963 31.7913C156.217 14.2057 178.75 8.20652 196.391 18.3655L509.129 198.467C513.464 200.964 514.931 206.517 512.395 210.829L460.382 299.251C458.488 302.47 454.401 303.636 451.094 301.9L437 294.5C407.162 321.683 391.94 319.119 365 312L362.076 314.164C348.665 324.088 330.651 325.133 316.182 316.827L259 284L240.703 315.083C226.326 339.506 200.101 354.5 171.761 354.5H104.5V392C104.5 394.761 102.261 397 99.5 397H60L60.202 418.205C60.3661 435.44 46.4396 449.5 29.2034 449.5H8C4.13401 449.5 1 446.366 1 442.5V205ZM392 268L373.5 300C398.19 306.089 408.584 301.915 423.5 286.5L392 268ZM91 383H60V253H91V383ZM496.5 208.5L451 286.5L123.5 97L158.342 39.3045C164.817 28.582 178.682 25.0126 189.53 31.2755L496.5 208.5ZM104.5 340.5V308H164.966C179.856 308 193.633 300.116 201.177 287.279L217.5 259.5L247.5 276.5L228.959 306.926C216.253 327.777 193.601 340.5 169.183 340.5H104.5ZM117.5 109L379.5 261.5L359.492 296.826C352.896 308.473 338.048 312.473 326.494 305.716L105.731 176.622C94.2834 169.929 90.4343 155.22 97.1351 143.777L117.5 109ZM46.5 418C46.5 427.941 38.4411 436 28.5 436H15V214H28.5C38.4411 214 46.5 222.059 46.5 232V418Z" fill="#818181"/>
<path d="M115.649 146.187C113.894 149.426 115.029 153.474 118.212 155.328L175.92 188.957C179.247 190.896 183.518 189.698 185.351 186.313C187.106 183.074 185.971 179.026 182.788 177.172L125.08 143.543C121.753 141.604 117.482 142.802 115.649 146.187Z" stroke="#818181"/>
<path fill-rule="evenodd" clip-rule="evenodd" d="M1 205C1 201.134 4.13401 198 8 198H29C46.1208 198 60 211.879 60 229V237.5H99.5C102.261 237.5 104.5 239.739 104.5 242.5V293H167.752C175.682 293 183.053 288.915 187.256 282.19L205.5 253L100.132 192.096C80.4749 180.734 73.7943 155.56 85.2309 135.947L145.963 31.7913C156.217 14.2057 178.75 8.20652 196.391 18.3655L509.129 198.467C513.464 200.964 514.931 206.517 512.395 210.829L460.382 299.251C458.488 302.47 454.401 303.636 451.094 301.9L437 294.5C407.162 321.683 391.94 319.119 365 312L362.076 314.164C348.665 324.088 330.651 325.133 316.182 316.827L259 284L240.703 315.083C226.326 339.506 200.101 354.5 171.761 354.5H104.5V392C104.5 394.761 102.261 397 99.5 397H60L60.202 418.205C60.3661 435.44 46.4396 449.5 29.2034 449.5H8C4.13401 449.5 1 446.366 1 442.5V205ZM392 268L373.5 300C398.19 306.089 408.584 301.915 423.5 286.5L392 268ZM91 383H60V253H91V383ZM496.5 208.5L451 286.5L123.5 97L158.342 39.3045C164.817 28.582 178.682 25.0126 189.53 31.2755L496.5 208.5ZM104.5 340.5V308H164.966C179.856 308 193.633 300.116 201.177 287.279L217.5 259.5L247.5 276.5L228.959 306.926C216.253 327.777 193.601 340.5 169.183 340.5H104.5ZM117.5 109L379.5 261.5L359.492 296.826C352.896 308.473 338.048 312.473 326.494 305.716L105.731 176.622C94.2834 169.929 90.4343 155.22 97.1351 143.777L117.5 109ZM46.5 418C46.5 427.941 38.4411 436 28.5 436H15V214H28.5C38.4411 214 46.5 222.059 46.5 232V418Z" stroke="#818181"/>
<circle cx="435" cy="224" r="18.5" stroke="#818181" stroke-width="17"/>
</svg>
