<svg width="404" height="505" viewBox="0 0 404 505" fill="none" xmlns="http://www.w3.org/2000/svg">
<path d="M135 468H264.424C267.504 468 270 470.496 270 473.576V473.576C270 483.199 262.199 491 252.576 491H158C145.297 491 135 480.703 135 468V468Z" fill="#818181"/>
<path d="M287.5 58.5C287.5 50.768 281.232 44.5 273.5 44.5H130.5C122.768 44.5 116.5 50.768 116.5 58.5V128V146.5L137.5 122.5V66H265.5V122.5V137.5L287.5 128V58.5Z" fill="#818181"/>
<path d="M128 1C98.7289 1 75 24.7289 75 54V152.5L94.5 139V54C94.5 37.4315 107.931 24 124.5 24H276.5C293.069 24 306.5 37.4315 306.5 54V139V152.5H328.5V54C328.5 24.7289 304.771 1 275.5 1H128Z" fill="#818181"/>
<path d="M75 152.5V54C75 24.7289 98.7289 1 128 1H275.5C304.771 1 328.5 24.7289 328.5 54V152.5H306.5V139M75 152.5H94.5M75 152.5L94.5 139M94.5 152.5V139M94.5 152.5L116.5 128M94.5 139V54C94.5 37.4315 107.931 24 124.5 24H276.5C293.069 24 306.5 37.4315 306.5 54V139M116.5 128V58.5C116.5 50.768 122.768 44.5 130.5 44.5H273.5C281.232 44.5 287.5 50.768 287.5 58.5V128M116.5 128V146.5L137.5 122.5M137.5 122.5V66H265.5V122.5M137.5 122.5H265.5M265.5 122.5V137.5L287.5 128M287.5 128V148.5L306.5 139" stroke="#818181"/>
<path d="M14 303.75C14 406.889 98.6108 490.5 201.75 490.5C304.889 490.5 389.5 406.889 389.5 303.75C389.5 200.611 304.889 117 201.75 117C98.6108 117 14 200.611 14 303.75Z" stroke="#818181" stroke-width="28"/>
<path d="M171.833 354C171.167 353.167 169.722 349.917 167.5 344.25C165.333 338.528 162.778 332.083 159.833 324.917C156.944 317.694 154.389 312.222 152.167 308.5V354H124.583V256.333H152.167V303.083L172.917 256.333H200.667L175.833 302.167C177.444 303.278 179.583 306.306 182.25 311.25C184.917 316.194 187.417 321.389 189.75 326.833C192.083 332.278 194.5 337.75 197 343.25C199.5 348.694 201.333 352.278 202.5 354H171.833ZM266.359 345.167C259.303 352.222 250.914 355.75 241.192 355.75C234.303 355.75 228.331 354.556 223.275 352.167C218.275 349.778 214.303 346.333 211.359 341.833C208.414 337.333 206.248 332.194 204.859 326.417C203.525 320.639 202.859 314.056 202.859 306.667C202.859 301.167 203.137 296.222 203.692 291.833C204.303 287.444 205.275 283.25 206.609 279.25C207.942 275.25 209.775 271.806 212.109 268.917C214.442 265.972 217.303 263.417 220.692 261.25C224.081 259.083 228.192 257.472 233.025 256.417C237.859 255.306 243.359 254.75 249.525 254.75C252.303 254.75 254.942 254.917 257.442 255.25C259.998 255.583 262.164 256 263.942 256.5C265.72 256.944 267.386 257.528 268.942 258.25C270.553 258.917 271.803 259.528 272.692 260.083C273.636 260.583 274.498 261.139 275.275 261.75C276.053 262.361 276.525 262.778 276.692 263C276.914 263.222 277.081 263.389 277.192 263.5L275.942 282.667H260.775L256.025 271.583C254.803 270.917 252.831 270.583 250.109 270.583C247.887 270.583 246.053 270.778 244.609 271.167C243.164 271.556 241.72 272.389 240.275 273.667C238.887 274.889 237.775 276.694 236.942 279.083C236.164 281.417 235.525 284.611 235.025 288.667C234.525 292.667 234.275 297.556 234.275 303.333C234.275 315.389 234.914 324.333 236.192 330.167C237.525 336 240.164 338.917 244.109 338.917C246.053 338.917 247.692 338.75 249.025 338.417C250.359 338.028 251.609 337.361 252.775 336.417C253.942 335.417 254.803 333.972 255.359 332.083C255.914 330.139 256.192 327.667 256.192 324.667V316.167L245.192 313.667V296.667H282.275L282.192 354H267.359L266.359 345.167Z" fill="#818181"/>
</svg>
