<svg width="86" height="89" viewBox="0 0 86 89" fill="none" xmlns="http://www.w3.org/2000/svg">
<path d="M68.4434 44.3306C68.4434 52.114 66.9018 59.0374 64.5233 63.922C62.0624 68.9756 59.1397 71.0849 56.6978 71.0849C54.2559 71.0849 51.3331 68.9756 48.8723 63.922C46.4937 59.0374 44.9521 52.114 44.9521 44.3306C44.9521 36.5471 46.4937 29.6237 48.8723 24.7391C51.3331 19.6855 54.2559 17.5762 56.6978 17.5762C59.1397 17.5762 62.0624 19.6855 64.5233 24.7391C66.9018 29.6237 68.4434 36.5471 68.4434 44.3306Z" stroke="#818181" stroke-width="5"/>
<path d="M68.4434 44.3306C68.4434 52.114 66.9018 59.0374 64.5233 63.922C62.0624 68.9756 59.1397 71.0849 56.6978 71.0849C54.2559 71.0849 51.3331 68.9756 48.8723 63.922C46.4937 59.0374 44.9521 52.114 44.9521 44.3306C44.9521 36.5471 46.4937 29.6237 48.8723 24.7391C51.3331 19.6855 54.2559 17.5762 56.6978 17.5762C59.1397 17.5762 62.0624 19.6855 64.5233 24.7391C66.9018 29.6237 68.4434 36.5471 68.4434 44.3306Z" stroke="#818181" stroke-width="5"/>
<path d="M75.5659 44.5078C75.5659 54.1158 73.3731 62.6724 69.8711 68.7383C66.3457 74.8447 61.7678 78.0379 57.0213 78.0379C52.2506 78.0379 47.5081 74.8121 43.8246 68.6913C40.1704 62.619 37.8291 54.0693 37.8291 44.492C37.8291 34.884 40.022 26.3274 43.5239 20.2616C47.0494 14.1551 51.6272 10.9619 56.3738 10.9619C61.1445 10.9619 65.8869 14.1877 69.5704 20.3086C73.2247 26.3808 75.5659 34.9305 75.5659 44.5078Z" stroke="#818181" stroke-width="5"/>
<path d="M75.5659 44.5078C75.5659 54.1158 73.3731 62.6724 69.8711 68.7383C66.3457 74.8447 61.7678 78.0379 57.0213 78.0379C52.2506 78.0379 47.5081 74.8121 43.8246 68.6913C40.1704 62.619 37.8291 54.0693 37.8291 44.492C37.8291 34.884 40.022 26.3274 43.5239 20.2616C47.0494 14.1551 51.6272 10.9619 56.3738 10.9619C61.1445 10.9619 65.8869 14.1877 69.5704 20.3086C73.2247 26.3808 75.5659 34.9305 75.5659 44.5078Z" stroke="#818181" stroke-width="5"/>
<path d="M82.6885 44.5095C82.6885 56.1353 79.7599 66.522 75.041 73.9216C70.3171 81.3291 63.9948 85.5 57.1289 85.5C50.2414 85.5 43.6969 81.3001 38.7593 73.8724C33.8339 66.4628 30.7061 56.082 30.7061 44.4905C30.7061 32.8647 33.6347 22.478 38.3536 15.0784C43.0775 7.6709 49.3997 3.5 56.2656 3.5C63.1531 3.5 69.6977 7.69994 74.6352 15.1276C79.5607 22.5372 82.6885 32.918 82.6885 44.5095Z" stroke="#818181" stroke-width="5"/>
<path d="M82.6885 44.5095C82.6885 56.1353 79.7599 66.522 75.041 73.9216C70.3171 81.3291 63.9948 85.5 57.1289 85.5C50.2414 85.5 43.6969 81.3001 38.7593 73.8724C33.8339 66.4628 30.7061 56.082 30.7061 44.4905C30.7061 32.8647 33.6347 22.478 38.3536 15.0784C43.0775 7.6709 49.3997 3.5 56.2656 3.5C63.1531 3.5 69.6977 7.69994 74.6352 15.1276C79.5607 22.5372 82.6885 32.918 82.6885 44.5095Z" stroke="#818181" stroke-width="5"/>
<path fill-rule="evenodd" clip-rule="evenodd" d="M27.698 87.6608H53.3909C50.5115 86.9239 47.9108 85.8531 45.505 84.2845C39.1001 84.6246 35.4355 83.8273 30.2332 79.6829C29.5925 79.1725 29.8413 78.1622 30.64 77.9805L37.6653 76.383C37.0259 75.4618 36.3958 74.4742 35.7724 73.4152L26.9666 75.6123C26.5437 75.7178 26.1013 75.5373 25.8728 75.1661L22.2389 69.261C21.8801 68.6779 22.2001 67.9147 22.8676 67.7621L31.8863 65.6988C31.7795 65.4552 31.6727 65.2089 31.5659 64.9602C31.2447 64.2118 30.9901 63.4368 30.7947 62.6462L24.043 64.286C21.9617 64.7915 19.8516 63.5679 19.2564 61.5105L18.5253 58.9828C17.8882 56.7802 19.2292 54.4939 21.4626 53.9751L28.6677 52.3012C28.5286 51.2768 28.4156 50.2394 28.3298 49.1637L19.3211 51.1889C18.114 51.4603 16.9526 50.5816 16.8854 49.3461L16.6814 45.5917C16.6285 44.6183 17.285 43.7486 18.2356 43.5328L28.1673 41.2778C28.1781 40.8898 28.1912 40.4943 28.2067 40.0906C28.2932 39.3633 28.3793 38.6575 28.4664 37.9708L19.5346 39.9116C18.1825 40.2054 16.9477 39.0705 17.1267 37.6985L17.6691 33.5403C17.8865 31.8729 19.1236 30.5196 20.7648 30.1536L30.1992 28.0497C30.4932 26.8758 30.8254 25.725 31.2089 24.5731L20.8882 26.7322C20.1043 26.8962 19.4553 26.1182 19.7572 25.3764L19.8502 25.148C21.2075 21.8129 24.111 19.3533 27.6239 18.5628L34.4521 17.0263C35.113 15.7583 35.8533 14.438 36.6863 13.0409L24.3062 15.924C30.6543 7.29721 34.601 3.25638 45.5898 4.13743C49.1696 2.09003 51.5948 1.46609 56.4436 1H27.698C19.0094 1.0414 7.63551 10.8089 3.53135 25.5059C-0.0230167 33.9991 1.07269 52.9793 1.49614 54.0816C1.91958 55.184 2.04251 61.6127 8.53408 74.0085C13.7616 83.9032 24.604 87.599 27.698 87.6608ZM30.9202 4.13743C26.4816 7.66565 24.0704 10.0524 20.0664 15.924L13.8763 12.617C19.7351 6.34124 23.3762 4.14971 30.9202 4.13743ZM15.4026 28.0497C16.3855 24.5007 17.0457 22.5525 18.6249 19.231C15.8852 17.308 14.4409 16.5265 11.926 15.3304C10.0054 18.2934 9.01239 20.034 7.68626 23.5556C11.0792 25.1403 12.7338 26.14 15.4026 28.0497ZM14.6395 31.2719C13.8493 34.7834 13.4679 36.7724 13.3676 40.5146C10.3871 38.6439 8.27065 37.8972 4.54884 36.5292C5.15242 32.4662 5.64095 30.2858 6.75351 26.6082L14.6395 31.2719ZM13.7067 51.3684C13.0976 48.5202 13.002 46.8901 13.3676 43.9064C10.485 42.4354 8.46343 41.54 4.20966 39.8363C3.84948 43.0182 3.9082 44.7523 4.20966 47.807C6.9494 48.3865 9.64832 49.6852 13.7067 51.3684ZM16.2506 63.8333C15.2314 60.0392 14.7694 58.1335 14.0459 54.9298C10.0298 53.2283 7.97975 52.396 4.54884 51.114C4.7882 53.9556 5.00658 55.6173 5.82077 58.9152C9.57607 60.5004 11.7064 61.4166 16.2506 63.8333ZM10.9933 71.5497C8.66755 67.7594 7.99345 66.0154 6.9231 62.9854L18.1161 68.0731C19.0584 70.8169 19.7894 72.2907 21.5079 74.7719C16.8857 73.0829 14.3794 72.2083 10.9933 71.5497ZM31.0898 84.2845C23.6875 84.3564 19.9523 82.2204 13.7915 75.7895L24.9845 79.3509C26.9483 81.4335 28.1842 82.551 31.0898 84.2845Z" fill="#818181"/>
<path d="M45.5898 4.13743C49.1696 2.09003 51.5948 1.46609 56.4436 1H27.698C19.0094 1.0414 7.63551 10.8089 3.53135 25.5059C-0.0230167 33.9991 1.07269 52.9793 1.49614 54.0816C1.91958 55.184 2.04251 61.6127 8.53408 74.0085C13.7616 83.9032 24.604 87.599 27.698 87.6608H53.391C50.5115 86.9239 47.9108 85.8531 45.505 84.2845M45.5898 4.13743C41.3876 6.97089 39.2499 9.17636 36.6863 13.0409M45.5898 4.13743C34.601 3.25638 30.6543 7.29721 24.3062 15.924L36.6863 13.0409M36.6863 13.0409C35.8533 14.438 35.113 15.7583 34.4521 17.0263M34.4521 17.0263L27.6239 18.5628C24.111 19.3533 21.2075 21.8129 19.8502 25.148L19.7572 25.3764C19.4553 26.1182 20.1043 26.8962 20.8882 26.7322L31.2089 24.5731M34.4521 17.0263C33.0594 19.6986 32.0195 22.1382 31.2089 24.5731M31.2089 24.5731C30.8254 25.725 30.4932 26.8758 30.1992 28.0497M30.1992 28.0497L20.7648 30.1536C19.1236 30.5196 17.8865 31.8729 17.6691 33.5403L17.1267 37.6985C16.9477 39.0705 18.1825 40.2054 19.5346 39.9116L28.4664 37.9708M30.1992 28.0497C29.4433 31.0678 28.9399 34.2382 28.4664 37.9708M28.4664 37.9708C28.3793 38.6575 28.2932 39.3633 28.2067 40.0906C28.1912 40.4943 28.1781 40.8898 28.1673 41.2778M28.1673 41.2778L18.2356 43.5328C17.285 43.7486 16.6285 44.6183 16.6814 45.5917L16.8854 49.3461C16.9526 50.5816 18.114 51.4603 19.3211 51.1889L28.3298 49.1637M28.1673 41.2778C28.0843 44.2677 28.1419 46.8076 28.3298 49.1637M28.3298 49.1637C28.4156 50.2394 28.5286 51.2768 28.6677 52.3012M28.6677 52.3012L21.4626 53.9751C19.2292 54.4939 17.8882 56.7802 18.5253 58.9828L19.2564 61.5105C19.8516 63.5679 21.9617 64.7915 24.043 64.286L30.7947 62.6462M28.6677 52.3012C29.1159 55.6016 29.8358 58.7676 30.7947 62.6462M30.7947 62.6462V62.6462C30.9901 63.4368 31.2447 64.2118 31.5659 64.9602C31.6727 65.2089 31.7795 65.4552 31.8863 65.6988M31.8863 65.6988L22.8676 67.7621C22.2001 67.9147 21.8801 68.6779 22.2389 69.261L25.8728 75.1661C26.1013 75.5373 26.5437 75.7178 26.9666 75.6123L35.7724 73.4152M31.8863 65.6988C33.1673 68.6203 34.4548 71.177 35.7724 73.4152M35.7724 73.4152C36.3958 74.4742 37.0259 75.4618 37.6653 76.3831M37.6653 76.3831L30.64 77.9805C29.8413 78.1622 29.5925 79.1725 30.2332 79.6829C35.4355 83.8273 39.1001 84.6246 45.505 84.2845M37.6653 76.3831C40.0989 79.8895 42.6662 82.4335 45.505 84.2845M20.0664 15.924C24.0704 10.0524 26.4816 7.66565 30.9202 4.13743C23.3762 4.14971 19.7351 6.34124 13.8763 12.617L20.0664 15.924ZM18.6249 19.231C17.0457 22.5525 16.3855 24.5007 15.4026 28.0497C12.7338 26.14 11.0792 25.1403 7.68626 23.5556C9.01239 20.034 10.0054 18.2934 11.926 15.3304C14.4409 16.5265 15.8852 17.308 18.6249 19.231ZM13.3676 40.5146C13.4679 36.7724 13.8493 34.7834 14.6395 31.2719L6.75351 26.6082C5.64095 30.2858 5.15242 32.4662 4.54884 36.5292C8.27065 37.8972 10.3871 38.6439 13.3676 40.5146ZM13.3676 43.9064C13.002 46.8901 13.0976 48.5202 13.7067 51.3684C9.64832 49.6852 6.9494 48.3865 4.20966 47.807C3.9082 44.7523 3.84948 43.0182 4.20966 39.8363C8.46343 41.54 10.485 42.4354 13.3676 43.9064ZM14.0459 54.9298C14.7694 58.1335 15.2314 60.0392 16.2506 63.8333C11.7064 61.4166 9.57607 60.5004 5.82077 58.9152C5.00658 55.6173 4.7882 53.9556 4.54884 51.114C7.97975 52.396 10.0298 53.2283 14.0459 54.9298ZM6.9231 62.9854C7.99345 66.0154 8.66755 67.7594 10.9933 71.5497C14.3794 72.2083 16.8857 73.0829 21.5079 74.7719C19.7894 72.2907 19.0584 70.8169 18.1161 68.0731L6.9231 62.9854ZM13.7915 75.7895C19.9523 82.2204 23.6874 84.3564 31.0898 84.2845C28.1842 82.551 26.9483 81.4335 24.9845 79.3509L13.7915 75.7895Z" stroke="#818181"/>
</svg>
