<svg width="91" height="88" viewBox="0 0 91 88" fill="none" xmlns="http://www.w3.org/2000/svg">
<path fill-rule="evenodd" clip-rule="evenodd" d="M14.9556 83.3282C16.6047 84.3655 18.7607 84.0679 20.0671 82.6225L20.9692 81.6244C21.5512 80.9805 22.4519 80.7291 23.2833 80.9785C24.0643 81.2128 24.6572 81.8515 24.8328 82.6477L25.1753 84.2001C25.576 86.017 27.1863 87.3107 29.0468 87.3107C30.9163 87.3107 32.5317 86.0048 32.9234 84.1768L33.2897 82.4675C33.4589 81.6781 34.0531 81.0483 34.8314 80.8335C35.6127 80.618 36.449 80.8568 36.9988 81.4523L38.106 82.6518C39.3865 84.039 41.4658 84.3348 43.0824 83.3598C44.6815 82.3952 45.3941 80.4481 44.7954 78.6792L44.2937 77.1968C44.0493 76.4749 44.2358 75.677 44.7747 75.1381C45.3088 74.604 46.098 74.4157 46.8157 74.6512L48.2578 75.1244C50.0223 75.7034 51.9559 75.027 52.9748 73.4744C54.0945 71.7682 53.7925 69.4989 52.2657 68.1449L51.2852 67.2755C50.673 66.7326 50.423 65.8888 50.6406 65.1001C50.8526 64.3315 51.4736 63.7438 52.2527 63.5745L53.9128 63.2136C55.7298 62.8186 57.0257 61.2106 57.0257 59.3512C57.0257 57.4831 55.7179 55.8701 53.8902 55.484L52.1783 55.1223C51.3474 54.9468 50.6992 54.2959 50.5271 53.4642C50.3767 52.7374 50.6142 51.9846 51.1543 51.4756L52.4384 50.2656C53.8322 48.9522 54.102 46.8363 53.0823 45.2152C52.1063 43.6638 50.2022 42.9721 48.4581 43.5356L46.9731 44.0154C46.2119 44.2613 45.3772 44.0602 44.8116 43.4946C44.2484 42.9314 44.0464 42.101 44.2879 41.3421L44.7809 39.7925C45.3386 38.0396 44.616 36.1334 43.0365 35.1908C41.4412 34.2388 39.3986 34.5235 38.1245 35.8756L36.9113 37.1631C36.3614 37.7467 35.5319 37.9748 34.7609 37.7545C34.0213 37.5432 33.4514 36.952 33.2674 36.2051L32.8249 34.4092C32.3856 32.6259 30.786 31.3725 28.9493 31.3725C27.0508 31.3725 25.415 32.7098 25.0375 34.5703L24.7222 36.1242C24.5618 36.9147 23.9708 37.548 23.1933 37.7625C22.4138 37.9775 21.5797 37.7351 21.0369 37.1357L19.9543 35.9404C18.6622 34.5137 16.5323 34.2207 14.903 35.2456C13.3675 36.2114 12.6831 38.0959 13.2407 39.822L13.7315 41.341C13.9767 42.1001 13.7761 42.9326 13.2121 43.4966C12.6478 44.0609 11.8149 44.2614 11.0556 44.0158L9.45067 43.4965C7.64606 42.9127 5.68128 43.6946 4.77122 45.3587C3.89452 46.9618 4.23231 48.957 5.58785 50.1822L6.82143 51.2972C7.4395 51.8558 7.69316 52.7133 7.47849 53.5183C7.26329 54.3253 6.61371 54.9435 5.79702 55.1185L4.12429 55.4769C2.30194 55.8674 1 57.4779 1 59.3416C1 61.2054 2.30194 62.8158 4.12429 63.2063L5.77798 63.5607C6.59836 63.7365 7.23752 64.3802 7.40751 65.2018C7.55963 65.937 7.31094 66.6978 6.75394 67.2013L5.64713 68.2017C4.17297 69.5341 3.86347 71.7304 4.91201 73.4184C5.94583 75.0826 8.01078 75.7854 9.84521 75.0975L10.9618 74.6788C11.7654 74.3774 12.6715 74.5964 13.2488 75.2315C13.7421 75.7741 13.916 76.5351 13.7073 77.2381L13.2461 78.7914C12.7342 80.5159 13.433 82.3704 14.9556 83.3282ZM23.9572 78.3693C22.1276 77.8426 20.1585 78.4213 18.9047 79.8541L18.0059 80.8814C17.5907 81.3559 16.89 81.453 16.3614 81.1095C15.8738 80.7925 15.6645 80.1843 15.8538 79.6344L16.3986 78.0519C16.994 76.3224 16.5617 74.405 15.2817 73.0984C13.9886 71.7783 12.0557 71.3115 10.3027 71.8959L8.6928 72.4325C8.09906 72.6304 7.45093 72.3546 7.18185 71.7895C6.94287 71.2877 7.06725 70.6881 7.48612 70.3227L8.68902 69.2733C10.0427 68.0925 10.6265 66.2562 10.2033 64.5104L10.1771 64.4023C9.75781 62.6729 8.38597 61.3358 6.64634 60.9611L4.80767 60.5651C4.22052 60.4386 3.80129 59.9195 3.80129 59.3189C3.80129 58.6994 4.2466 58.1696 4.85682 58.0631L6.32126 57.8074C8.1536 57.4875 9.64285 56.1502 10.1574 54.3627C10.6621 52.6095 10.1429 50.7214 8.81283 49.4727L7.4659 48.2082C7.01946 47.7891 6.9452 47.1071 7.29098 46.6017C7.60793 46.1385 8.19621 45.9455 8.72598 46.1309L10.2327 46.6583C11.9737 47.2676 13.9098 46.8258 15.2141 45.5215C16.5299 44.2056 16.9669 42.2479 16.3356 40.4974L15.7888 38.9813C15.5869 38.4214 15.797 37.7963 16.2959 37.4719C16.8162 37.1337 17.5041 37.2169 17.9288 37.6693L19.2795 39.108C20.4751 40.3816 22.2751 40.8928 23.9616 40.4377C25.6668 39.9776 26.9737 38.6061 27.3511 36.8808L27.744 35.0847C27.8715 34.5018 28.3877 34.0863 28.9844 34.0863C29.5671 34.0863 30.0749 34.4828 30.2163 35.0481L30.6956 36.9654C31.1159 38.6467 32.4136 39.9687 34.0868 40.4202C35.8099 40.8852 37.6485 40.3512 38.8545 39.0356L40.1232 37.6515C40.4902 37.2511 41.0782 37.1426 41.564 37.3855C42.0995 37.6532 42.3606 38.2709 42.1794 38.8416L41.5955 40.6809C41.071 42.3331 41.5007 44.1399 42.7129 45.379L44.2494 46.9496C44.5264 47.2328 44.9059 47.3924 45.302 47.3924C45.4714 47.3924 45.6395 47.3632 45.7989 47.306L49.1656 46.0991C49.7625 45.8851 50.4269 46.1304 50.7415 46.681C51.0392 47.2019 50.944 47.8586 50.5106 48.2736L49.0755 49.6476C47.8734 50.7985 47.3745 52.5022 47.7659 54.1197C48.183 55.8439 49.5408 57.1829 51.2705 57.576L53.2026 58.0151C53.8003 58.151 54.2245 58.6823 54.2245 59.2953C54.2245 59.9106 53.7971 60.4433 53.1965 60.5768L51.4541 60.964C49.7657 61.3392 48.4233 62.6174 47.9659 64.2854C47.5079 65.9558 48.0127 67.7424 49.2771 68.9261L50.5564 70.1237C51.017 70.5549 51.1337 71.2402 50.8419 71.7995C50.5214 72.4137 49.8013 72.7027 49.1452 72.4805L47.5734 71.9481C45.9074 71.3838 44.0656 71.8035 42.8085 73.0338C41.543 74.2724 41.0868 76.1201 41.6304 77.8053L42.1966 79.5605C42.3717 80.1032 42.157 80.6955 41.6749 81C41.1813 81.3117 40.5376 81.2399 40.1248 80.8271L38.6834 79.3857C37.4673 78.1696 35.6922 77.6995 34.0336 78.1543C32.3421 78.6181 31.0397 79.9701 30.6395 81.6778L30.205 83.5316C30.0707 84.1044 29.5598 84.5094 28.9715 84.5094C28.381 84.5094 27.8688 84.1015 27.7367 83.5259L27.3838 81.9887C26.9846 80.249 25.6725 78.8631 23.9572 78.3693Z" fill="#818181" stroke="#818181"/>
<circle cx="29.0125" cy="59.2977" r="12.9071" stroke="#818181" stroke-width="5"/>
<path fill-rule="evenodd" clip-rule="evenodd" d="M54.0382 36.3652C55.1465 36.7077 56.3406 36.2042 56.8692 35.1716L57.2342 34.4585C57.4697 33.9985 57.949 33.7151 58.4656 33.7304C58.9509 33.7448 59.3903 34.0208 59.6141 34.4517L60.0503 35.2918C60.5607 36.2749 61.6862 36.7709 62.7563 36.4842C63.8315 36.1961 64.5594 35.196 64.5029 34.0843L64.4502 33.0448C64.4258 32.5646 64.6705 32.1108 65.0851 31.8674C65.5012 31.623 66.019 31.6315 66.427 31.8893L67.2486 32.4085C68.1989 33.009 69.4404 32.8587 70.2199 32.0488C70.9909 31.2476 71.1007 30.0179 70.4838 29.0928L69.9668 28.3175C69.715 27.94 69.6993 27.4523 69.9261 27.0594C70.151 26.6699 70.5759 26.44 71.025 26.4648L71.9273 26.5147C73.0314 26.5758 74.0392 25.8888 74.386 24.8388C74.767 23.685 74.2436 22.4263 73.1568 21.8829L72.4589 21.5339C72.0232 21.316 71.7493 20.8693 71.7529 20.3821C71.7564 19.9074 72.023 19.4737 72.445 19.2562L73.3442 18.7928C74.3283 18.2856 74.8259 17.1611 74.5393 16.0917C74.2515 15.0173 73.2507 14.2911 72.14 14.3507L71.0997 14.4065C70.5947 14.4336 70.1216 14.1591 69.8945 13.7073C69.696 13.3125 69.7165 12.8429 69.9488 12.4669L70.5008 11.5731C71.1 10.603 70.9291 9.34441 70.0928 8.56923C69.2924 7.82731 68.0907 7.72298 67.1744 8.31584L66.3943 8.82063C65.9944 9.07936 65.4833 9.09232 65.0708 8.85418C64.6601 8.61706 64.416 8.17064 64.4379 7.6969L64.4827 6.72968C64.5333 5.63558 63.824 4.65063 62.7702 4.3519C61.706 4.0502 60.5751 4.52876 60.0507 5.50272L59.5513 6.43017C59.325 6.85057 58.8831 7.10962 58.4057 7.10174C57.9477 7.09418 57.5289 6.84199 57.3079 6.44079L56.7767 5.47606C56.2492 4.5181 55.136 4.04377 54.0797 4.32682C52.9878 4.61939 52.253 5.64058 52.3227 6.76886L52.3808 7.71114C52.4104 8.1905 52.168 8.64579 51.7539 8.88898C51.3387 9.13277 50.8216 9.12189 50.4171 8.86084L49.6103 8.34018C48.6472 7.71875 47.3771 7.87851 46.5979 8.71905C45.8637 9.51116 45.7604 10.7005 46.3472 11.6073L46.8635 12.4053C47.1215 12.8041 47.1345 13.3138 46.897 13.7251C46.6594 14.1366 46.2113 14.3803 45.7367 14.3561L44.7336 14.3047C43.6057 14.2471 42.5962 14.9995 42.3293 16.0969C42.0721 17.154 42.5738 18.2495 43.5423 18.7452L44.4236 19.1964C44.8652 19.4225 45.1432 19.8765 45.1438 20.3726C45.1444 20.8699 44.866 21.3255 44.4233 21.5521L43.5165 22.016C42.5286 22.5214 42.0279 23.6483 42.3152 24.7202C42.6024 25.7921 43.5994 26.5177 44.7077 26.4615L45.7134 26.4105C46.2123 26.3851 46.6791 26.6569 46.9035 27.1032C47.1043 27.5026 47.0785 27.9785 46.8357 28.3539L46.3533 29.0998C45.7108 30.0933 45.8713 31.4043 46.7345 32.2135C47.5855 33.0113 48.8815 33.0973 49.8305 32.419L50.4082 32.0061C50.8239 31.7089 51.3788 31.6952 51.8087 31.9715C52.1761 32.2075 52.3933 32.6184 52.3816 33.0549L52.3558 34.0194C52.3271 35.0901 53.0148 36.049 54.0382 36.3652ZM58.4511 32.1259C57.3177 32.1049 56.2743 32.7412 55.7741 33.7585L55.4154 34.4879C55.2498 34.8247 54.8617 34.9886 54.5048 34.8725C54.1755 34.7653 53.9614 34.4478 53.9855 34.1023L54.0549 33.1082C54.1309 32.0218 53.5867 30.9856 52.6492 30.4314C51.702 29.8714 50.5184 29.9008 49.6002 30.5071L48.757 31.0638C48.446 31.2691 48.0308 31.2104 47.7889 30.9268C47.5741 30.675 47.5533 30.311 47.7379 30.0363L48.268 29.2474C48.8646 28.3596 48.9174 27.2136 48.4049 26.2747L48.3732 26.2166C47.8655 25.2865 46.8705 24.7289 45.8122 24.7815L44.6937 24.8371C44.3365 24.8549 44.0154 24.6209 43.9228 24.2754C43.8273 23.9192 44.0018 23.5458 44.3363 23.3905L45.1392 23.0178C46.1437 22.5514 46.7942 21.5528 46.8147 20.4454C46.8348 19.3593 46.2452 18.3534 45.2878 17.8402L44.3182 17.3205C43.9969 17.1482 43.849 16.7674 43.97 16.4235C44.0809 16.1082 44.3895 15.9066 44.7228 15.9316L45.6707 16.0027C46.7659 16.0848 47.8113 15.5323 48.3604 14.5812C48.9145 13.6216 48.8641 12.4283 48.2312 11.5188L47.6831 10.7311C47.4807 10.4402 47.5052 10.0483 47.7422 9.78481C47.9893 9.51013 48.3977 9.45194 48.7117 9.6467L49.7103 10.266C50.5942 10.8143 51.7082 10.8309 52.6081 10.3092C53.5179 9.78182 54.0582 8.79161 54.0093 7.74115L53.9585 6.64759C53.942 6.29267 54.1749 5.97416 54.5181 5.8822C54.8532 5.79241 55.2064 5.94221 55.3748 6.24553L55.946 7.2744C56.4468 8.17662 57.3969 8.73696 58.4288 8.73878C59.4915 8.74066 60.4666 8.1502 60.9575 7.20767L61.4739 6.21613C61.6233 5.9293 61.9447 5.77624 62.2615 5.84108C62.6108 5.91255 62.8562 6.22757 62.8399 6.58372L62.7875 7.73158C62.7405 8.76264 63.2661 9.73555 64.1542 10.2614L65.2799 10.928C65.4829 11.0481 65.7257 11.0815 65.9536 11.0204C66.051 10.9943 66.1432 10.9516 66.2261 10.8941L67.9764 9.68116C68.2867 9.4661 68.7067 9.50481 68.9724 9.77298C69.2239 10.0267 69.2704 10.4191 69.0851 10.7245L68.4714 11.736C67.9574 12.5832 67.933 13.6399 68.4074 14.5099C68.913 15.4372 69.9003 15.9981 70.9557 15.9576L72.1346 15.9124C72.4993 15.8985 72.8251 16.1387 72.9196 16.4912C73.0144 16.8451 72.8507 17.2174 72.5258 17.3867L71.5834 17.8779C70.6701 18.3539 70.0951 19.2959 70.0891 20.3257C70.0831 21.357 70.6488 22.3068 71.5584 22.7927L72.4787 23.2844C72.81 23.4614 72.9828 23.8375 72.9011 24.2042C72.8115 24.6068 72.4418 24.884 72.0303 24.8573L71.0442 24.7934C69.999 24.7256 69.0044 25.2508 68.471 26.1521C67.9341 27.0595 67.9564 28.1925 68.5288 29.0779L69.1249 30.0002C69.3092 30.2853 69.2771 30.6591 69.0467 30.9085C68.8109 31.1638 68.4296 31.2217 68.1286 31.0479L67.0774 30.4411C66.1906 29.929 65.0972 29.9322 64.2134 30.4494C63.3119 30.9768 62.7713 31.9551 62.8042 32.999L62.84 34.1321C62.8511 34.4823 62.6197 34.794 62.2813 34.8846C61.9417 34.9756 61.5842 34.8199 61.4195 34.5093L60.9797 33.6795C60.482 32.7405 59.5138 32.1456 58.4511 32.1259Z" fill="#818181" stroke="#818181"/>
<circle cx="58.4202" cy="20.3782" r="8" transform="rotate(-15 58.4202 20.3782)" stroke="#818181" stroke-width="2.34767"/>
<path fill-rule="evenodd" clip-rule="evenodd" d="M67.1913 65.5169C68.1119 65.8014 69.1038 65.3832 69.5428 64.5255L69.846 63.9332C70.0416 63.5511 70.4397 63.3157 70.8688 63.3285C71.2719 63.3404 71.6369 63.5697 71.8227 63.9275L72.185 64.6253C72.609 65.4419 73.5439 65.8539 74.4327 65.6157C75.3257 65.3764 75.9303 64.5458 75.8834 63.6224L75.8396 62.7589C75.8194 62.3602 76.0226 61.9832 76.367 61.781C76.7126 61.578 77.1427 61.5851 77.4815 61.7992L78.164 62.2305C78.9533 62.7293 79.9845 62.6044 80.632 61.9317C81.2724 61.2662 81.3636 60.2448 80.8512 59.4764L80.4217 58.8325C80.2126 58.5189 80.1995 58.1139 80.388 57.7875C80.5748 57.4639 80.9277 57.273 81.3007 57.2936L82.0501 57.3351C82.9672 57.3858 83.8043 56.8152 84.0923 55.943C84.4088 54.9847 83.9741 53.9392 83.0714 53.4878L82.4917 53.198C82.1298 53.017 81.9023 52.6459 81.9053 52.2413C81.9082 51.847 82.1296 51.4868 82.4802 51.3061L83.227 50.9212C84.0444 50.5 84.4577 49.5659 84.2197 48.6776C83.9806 47.7852 83.1493 47.1821 82.2268 47.2316L81.3627 47.2779C80.9433 47.3004 80.5503 47.0725 80.3617 46.6972C80.1968 46.3692 80.2139 45.9792 80.4067 45.6669L80.8653 44.9245C81.363 44.1187 81.221 43.0733 80.5264 42.4295C79.8616 41.8132 78.8634 41.7266 78.1024 42.219L77.4544 42.6383C77.1222 42.8532 76.6977 42.8639 76.3551 42.6661C76.014 42.4692 75.8112 42.0984 75.8294 41.7049L75.8666 40.9015C75.9087 39.9928 75.3195 39.1747 74.4442 38.9265C73.5603 38.6759 72.6209 39.0734 72.1854 39.8824L71.7706 40.6528C71.5826 41.0019 71.2155 41.2171 70.819 41.2106C70.4386 41.2043 70.0907 40.9948 69.9072 40.6616L69.466 39.8603C69.0278 39.0646 68.1032 38.6706 67.2258 38.9057C66.3189 39.1487 65.7086 39.9969 65.7664 40.9341L65.8147 41.7167C65.8393 42.1149 65.638 42.4931 65.294 42.695C64.9492 42.8975 64.5197 42.8885 64.1837 42.6717L63.5135 42.2392C62.7136 41.7231 61.6586 41.8557 61.0114 42.5539C60.4016 43.2118 60.3158 44.1997 60.8032 44.9529L61.232 45.6157C61.4464 45.9469 61.4571 46.3703 61.2598 46.712C61.0625 47.0538 60.6903 47.2562 60.2961 47.236L59.4629 47.1934C58.5261 47.1455 57.6876 47.7705 57.4659 48.682C57.2523 49.56 57.669 50.4699 58.4734 50.8817L59.2054 51.2564C59.5722 51.4442 59.8031 51.8213 59.8036 52.2334C59.8041 52.6464 59.5729 53.0249 59.2052 53.2131L58.452 53.5984C57.6314 54.0182 57.2156 54.9542 57.4542 55.8446C57.6927 56.7349 58.5208 57.3376 59.4414 57.2909L60.2767 57.2485C60.6911 57.2274 61.0789 57.4531 61.2652 57.8239C61.432 58.1556 61.4106 58.5509 61.209 58.8627L60.8083 59.4823C60.2746 60.3075 60.4079 61.3963 61.1249 62.0685C61.8317 62.7311 62.9082 62.8026 63.6964 62.2391L64.1763 61.8962C64.5216 61.6494 64.9825 61.638 65.3396 61.8675C65.6447 62.0635 65.8251 62.4048 65.8154 62.7674L65.794 63.5685C65.7701 64.4578 66.3413 65.2543 67.1913 65.5169ZM70.8568 61.9958C69.9153 61.9783 69.0487 62.5068 68.6332 63.3518L68.3353 63.9576C68.1977 64.2374 67.8754 64.3735 67.5789 64.2771C67.3054 64.1881 67.1275 63.9243 67.1476 63.6374L67.2053 62.8116C67.2683 61.9092 66.8164 61.0486 66.0377 60.5882C65.2509 60.1232 64.2678 60.1476 63.5052 60.6511L62.8048 61.1135C62.5465 61.2841 62.2016 61.2353 62.0007 60.9998C61.8223 60.7906 61.805 60.4883 61.9583 60.2601L62.3986 59.6049C62.8941 58.8675 62.938 57.9155 62.5123 57.1357L62.486 57.0874C62.0643 56.3149 61.2378 55.8518 60.3588 55.8955L59.4297 55.9416C59.1331 55.9564 58.8663 55.762 58.7895 55.4751C58.7102 55.1792 58.8551 54.8691 59.133 54.7401L59.7998 54.4305C60.6342 54.0431 61.1745 53.2136 61.1915 52.2939C61.2082 51.3917 60.7185 50.5562 59.9232 50.1299L59.1179 49.6983C58.851 49.5552 58.7282 49.2389 58.8287 48.9533C58.9208 48.6914 59.1771 48.5239 59.454 48.5446L60.2413 48.6037C61.1509 48.6719 62.0193 48.213 62.4754 47.423C62.9356 46.626 62.8938 45.6348 62.3681 44.8794L61.9128 44.2251C61.7447 43.9835 61.765 43.6579 61.9619 43.4391C62.1671 43.211 62.5064 43.1626 62.7672 43.3244L63.5966 43.8388C64.3307 44.2942 65.2561 44.308 66.0035 43.8747C66.7592 43.4366 67.208 42.6142 67.1674 41.7417L67.1252 40.8333C67.1115 40.5385 67.3049 40.274 67.59 40.1976C67.8683 40.123 68.1617 40.2474 68.3015 40.4994L68.776 41.354C69.192 42.1034 69.9811 42.5688 70.8382 42.5703C71.7209 42.5718 72.5309 42.0814 72.9386 41.2985L73.3675 40.475C73.4916 40.2367 73.7586 40.1096 74.0217 40.1634C74.3118 40.2228 74.5156 40.4845 74.5021 40.7803L74.4586 41.7337C74.4195 42.5901 74.8561 43.3982 75.5938 43.835L76.5288 44.3886C76.6974 44.4884 76.8991 44.5161 77.0883 44.4654C77.1693 44.4437 77.2458 44.4083 77.3147 44.3605L78.7685 43.353C79.0263 43.1744 79.3751 43.2066 79.5958 43.4293C79.8047 43.6401 79.8433 43.966 79.6894 44.2197L79.1797 45.0598C78.7527 45.7634 78.7325 46.6411 79.1265 47.3638C79.5464 48.134 80.3665 48.5999 81.2431 48.5663L82.2223 48.5288C82.5252 48.5171 82.7959 48.7167 82.8743 49.0095C82.9531 49.3034 82.8171 49.6126 82.5473 49.7533L81.7645 50.1613C81.0059 50.5566 80.5283 51.3391 80.5233 52.1945C80.5183 53.0511 80.9882 53.8399 81.7437 54.2435L82.5081 54.6519C82.7833 54.7989 82.9268 55.1114 82.859 55.416C82.7846 55.7504 82.4775 55.9806 82.1356 55.9584L81.3166 55.9053C80.4485 55.849 79.6224 56.2852 79.1793 57.0339C78.7333 57.7876 78.7519 58.7286 79.2273 59.4641L79.7225 60.2301C79.8756 60.4669 79.8488 60.7774 79.6575 60.9845C79.4616 61.1966 79.1449 61.2447 78.8949 61.1004L78.0218 60.5963C77.2852 60.171 76.377 60.1737 75.6429 60.6032C74.8942 61.0413 74.4451 61.8539 74.4725 62.7209L74.5022 63.6621C74.5114 63.953 74.3192 64.2118 74.0381 64.2871C73.756 64.3627 73.4591 64.2334 73.3223 63.9754L72.957 63.2862C72.5436 62.5062 71.7394 62.0121 70.8568 61.9958Z" fill="#818181" stroke="#818181"/>
<circle cx="70.8304" cy="52.2382" r="6.11983" transform="rotate(-15 70.8304 52.2382)" stroke="#818181" stroke-width="3"/>
<path d="M35.2397 22.419C35.6119 22.011 35.5829 21.3785 35.1749 21.0063L28.5263 14.9403C28.1183 14.5681 27.4858 14.597 27.1136 15.005C26.7413 15.413 26.7703 16.0455 27.1783 16.4178L33.0882 21.8097L27.6962 27.7196C27.324 28.1276 27.353 28.7601 27.761 29.1323C28.169 29.5046 28.8015 29.4756 29.1737 29.0676L35.2397 22.419ZM3.25642 34.3031C8.56455 28.5026 12.6645 25.836 17.2096 24.4903C21.8354 23.1206 26.9712 23.0911 34.5467 22.7439L34.4551 20.746C27.0379 21.0859 21.5667 21.1143 16.6418 22.5726C11.6361 24.0547 7.24127 26.9861 1.78097 32.9529L3.25642 34.3031Z" fill="#818181"/>
<path d="M80.4423 6.50897C80.7135 6.02785 81.3234 5.85767 81.8045 6.12886L89.6448 10.5481C90.1259 10.8193 90.2961 11.4292 90.0249 11.9103C89.7537 12.3914 89.1439 12.5616 88.6627 12.2904L81.6936 8.36217L77.7654 15.3313C77.4942 15.8124 76.8843 15.9826 76.4032 15.7114C75.9221 15.4402 75.7519 14.8304 76.0231 14.3492L80.4423 6.50897ZM79.0839 32.8621C81.788 26.6651 82.984 23.7432 83.1149 20.6671C83.247 17.5644 82.3009 14.259 80.3503 7.26878L82.2767 6.73122C84.1846 13.5685 85.2621 17.2519 85.1131 20.7522C84.963 24.2792 83.5732 27.5745 80.917 33.662L79.0839 32.8621Z" fill="#818181"/>
</svg>
