<svg width="357" height="214" viewBox="0 0 357 214" fill="none" xmlns="http://www.w3.org/2000/svg">
<path fill-rule="evenodd" clip-rule="evenodd" d="M0.999999 200C1 207.18 6.8203 213 14 213L343 213C350.18 213 356 207.18 356 200L356 91.1956C356 84.0159 350.18 78.1956 343 78.1956L14 78.1957C6.82029 78.1957 0.999994 84.016 0.999995 91.1957L0.999999 200ZM14.3602 90.4855L14.3602 200.326L343.021 200.326L343.021 90.4855L331.57 90.4855L331.57 108.576C331.57 112.16 328.665 115.065 325.081 115.065C321.497 115.065 318.591 112.16 318.591 108.576L318.591 90.4855L307.522 90.4855L307.522 133.54C307.522 137.124 304.616 140.029 301.032 140.029C297.448 140.029 294.543 137.124 294.543 133.54L294.543 90.4855L282.71 90.4855L282.71 108.576C282.71 112.16 279.804 115.065 276.22 115.065C272.637 115.065 269.731 112.16 269.731 108.576L269.731 90.4855L258.28 90.4855L258.28 133.349C258.28 137.038 255.289 140.029 251.599 140.029C247.91 140.029 244.919 137.038 244.919 133.349L244.919 90.4855L233.468 90.4855L233.468 108.576C233.468 112.16 230.562 115.065 226.978 115.065C223.395 115.065 220.489 112.16 220.489 108.576L220.489 90.4855L209.801 90.4855L209.801 133.731C209.801 137.209 206.981 140.029 203.503 140.029C200.024 140.029 197.204 137.209 197.204 133.731L197.204 90.4855L184.608 90.4855L184.608 108.958C184.608 112.331 181.873 115.065 178.5 115.065C175.127 115.065 172.392 112.331 172.392 108.958L172.392 90.4855L160.559 90.4855L160.559 133.54C160.559 137.124 157.654 140.029 154.07 140.029C150.486 140.029 147.581 137.124 147.581 133.54L147.581 90.4855L136.129 90.4855L136.129 108.576C136.129 112.16 133.224 115.065 129.64 115.065C126.056 115.065 123.151 112.16 123.151 108.576L123.151 90.4855L111.699 90.4855L111.699 133.54C111.699 137.124 108.794 140.029 105.21 140.029C101.626 140.029 98.7204 137.124 98.7204 133.54L98.7204 90.4855L86.8871 90.4855L86.8871 108.576C86.8871 112.16 83.9818 115.065 80.3978 115.065C76.8139 115.065 73.9086 112.16 73.9086 108.576L73.9086 90.4855L62.457 90.4855L62.457 133.731C62.457 137.209 59.6371 140.029 56.1586 140.029C52.6801 140.029 49.8602 137.209 49.8602 133.731L49.8602 90.4855L38.4086 90.4855L38.4086 109.153C38.4086 112.843 35.4178 115.833 31.7285 115.833C28.0392 115.833 25.0484 112.843 25.0484 109.153L25.0484 90.4855L14.3602 90.4855Z" fill="#818181"/>
<path d="M307.14 41.3261L293.944 54.603C291.53 57.0317 291.53 60.9538 293.944 63.3825C296.378 65.8322 300.342 65.8322 302.777 63.3825L325.264 40.7576C328.753 37.2473 328.753 31.5788 325.264 28.0685L302.777 5.44364C300.342 2.99388 296.378 2.99388 293.944 5.44364C291.53 7.87232 291.53 11.7943 293.944 14.223L307.14 27.5L51.3871 27.5L63.4404 15.3729C66.0642 12.733 66.0642 8.46992 63.4404 5.83004C60.7938 3.16728 56.4857 3.16728 53.8391 5.83005L31.3543 28.4526C27.8654 31.9628 27.8654 37.6314 31.3543 41.1416L53.7308 63.6552C56.4371 66.378 60.8425 66.378 63.5488 63.6552C66.1458 61.0422 66.2409 56.8529 63.7652 54.1248L52.1505 41.3261L307.14 41.3261Z" fill="#818181"/>
<path d="M7.68011 67.8261C3.99079 67.8261 1 64.8353 1 61.146L1 7.6801C1 3.99078 3.99079 1 7.6801 1C11.3694 1 14.3602 3.99078 14.3602 7.6801L14.3602 61.146C14.3602 64.8353 11.3694 67.8261 7.68011 67.8261Z" fill="#818181"/>
<path d="M349.511 1C353.095 1 356 3.90533 356 7.48924L356 61.3368C356 64.9208 353.095 67.8261 349.511 67.8261C345.927 67.8261 343.021 64.9207 343.021 61.3368L343.021 7.48924C343.021 3.90533 345.927 1 349.511 1Z" fill="#818181"/>
<path fill-rule="evenodd" clip-rule="evenodd" d="M0.999999 200C1 207.18 6.8203 213 14 213L343 213C350.18 213 356 207.18 356 200L356 91.1956C356 84.0159 350.18 78.1956 343 78.1956L14 78.1957C6.82029 78.1957 0.999994 84.016 0.999995 91.1957L0.999999 200ZM14.3602 90.4855L14.3602 200.326L343.021 200.326L343.021 90.4855L331.57 90.4855L331.57 108.576C331.57 112.16 328.665 115.065 325.081 115.065C321.497 115.065 318.591 112.16 318.591 108.576L318.591 90.4855L307.522 90.4855L307.522 133.54C307.522 137.124 304.616 140.029 301.032 140.029C297.448 140.029 294.543 137.124 294.543 133.54L294.543 90.4855L282.71 90.4855L282.71 108.576C282.71 112.16 279.804 115.065 276.22 115.065C272.637 115.065 269.731 112.16 269.731 108.576L269.731 90.4855L258.28 90.4855L258.28 133.349C258.28 137.038 255.289 140.029 251.599 140.029C247.91 140.029 244.919 137.038 244.919 133.349L244.919 90.4855L233.468 90.4855L233.468 108.576C233.468 112.16 230.562 115.065 226.978 115.065C223.395 115.065 220.489 112.16 220.489 108.576L220.489 90.4855L209.801 90.4855L209.801 133.731C209.801 137.209 206.981 140.029 203.503 140.029C200.024 140.029 197.204 137.209 197.204 133.731L197.204 90.4855L184.608 90.4855L184.608 108.958C184.608 112.331 181.873 115.065 178.5 115.065C175.127 115.065 172.392 112.331 172.392 108.958L172.392 90.4855L160.559 90.4855L160.559 133.54C160.559 137.124 157.654 140.029 154.07 140.029C150.486 140.029 147.581 137.124 147.581 133.54L147.581 90.4855L136.129 90.4855L136.129 108.576C136.129 112.16 133.224 115.065 129.64 115.065C126.056 115.065 123.151 112.16 123.151 108.576L123.151 90.4855L111.699 90.4855L111.699 133.54C111.699 137.124 108.794 140.029 105.21 140.029C101.626 140.029 98.7204 137.124 98.7204 133.54L98.7204 90.4855L86.8871 90.4855L86.8871 108.576C86.8871 112.16 83.9818 115.065 80.3978 115.065C76.8139 115.065 73.9086 112.16 73.9086 108.576L73.9086 90.4855L62.457 90.4855L62.457 133.731C62.457 137.209 59.6371 140.029 56.1586 140.029C52.6801 140.029 49.8602 137.209 49.8602 133.731L49.8602 90.4855L38.4086 90.4855L38.4086 109.153C38.4086 112.843 35.4178 115.833 31.7285 115.833C28.0392 115.833 25.0484 112.843 25.0484 109.153L25.0484 90.4855L14.3602 90.4855Z" stroke="#818181"/>
<path d="M307.14 41.3261L293.944 54.603C291.53 57.0317 291.53 60.9538 293.944 63.3825C296.378 65.8322 300.342 65.8322 302.777 63.3825L325.264 40.7576C328.753 37.2473 328.753 31.5788 325.264 28.0685L302.777 5.44364C300.342 2.99388 296.378 2.99388 293.944 5.44364C291.53 7.87232 291.53 11.7943 293.944 14.223L307.14 27.5L51.3871 27.5L63.4404 15.3729C66.0642 12.733 66.0642 8.46992 63.4404 5.83004C60.7938 3.16728 56.4857 3.16728 53.8391 5.83005L31.3543 28.4526C27.8654 31.9628 27.8654 37.6314 31.3543 41.1416L53.7308 63.6552C56.4371 66.378 60.8425 66.378 63.5488 63.6552C66.1458 61.0422 66.2409 56.8529 63.7652 54.1248L52.1505 41.3261L307.14 41.3261Z" stroke="#818181"/>
<path d="M7.68011 67.8261C3.99079 67.8261 1 64.8353 1 61.146L1 7.6801C1 3.99078 3.99079 1 7.6801 1C11.3694 1 14.3602 3.99078 14.3602 7.6801L14.3602 61.146C14.3602 64.8353 11.3694 67.8261 7.68011 67.8261Z" stroke="#818181"/>
<path d="M349.511 1C353.095 1 356 3.90533 356 7.48924L356 61.3368C356 64.9208 353.095 67.8261 349.511 67.8261C345.927 67.8261 343.021 64.9207 343.021 61.3368L343.021 7.48924C343.021 3.90533 345.927 1 349.511 1Z" stroke="#818181"/>
</svg>
