<svg width="512" height="512" viewBox="0 0 512 512" fill="none" xmlns="http://www.w3.org/2000/svg">
<path d="M397.5 188.5L378.539 196.679C374.811 198.287 372.88 202.433 374.046 206.321V206.321C375.375 210.749 380.169 213.132 384.501 211.517L406 203.5L397.5 188.5Z" fill="#818181"/>
<path d="M363.5 138L347.272 153.49C344.047 156.568 343.826 161.644 346.772 164.991V164.991C349.895 168.54 355.347 168.772 358.76 165.501L376.5 148.5L363.5 138Z" fill="#818181"/>
<path d="M310.5 104L299.755 127.409C297.94 131.363 299.587 136.044 303.479 137.989V137.989C307.387 139.943 312.141 138.43 314.2 134.577L326 112.5L310.5 104Z" fill="#818181"/>
<path d="M247.5 98.5V120C247.5 124.694 251.306 128.5 256 128.5V128.5C260.694 128.5 264.5 124.694 264.5 120V95L247.5 98.5Z" fill="#818181"/>
<path d="M107.5 203.5L126.975 211.795C131.139 213.568 135.953 211.648 137.752 207.495V207.495C139.55 203.347 137.664 198.525 133.529 196.696L115 188.5L107.5 203.5Z" fill="#818181"/>
<path d="M138.5 150.5L153.25 165.25C156.702 168.702 162.298 168.702 165.75 165.25V165.25C169.202 161.798 169.202 156.202 165.75 152.75L151 138L138.5 150.5Z" fill="#818181"/>
<path d="M186 112.5L196.84 134.181C198.87 138.239 203.783 139.915 207.87 137.942V137.942C211.86 136.016 213.633 131.293 211.895 127.216L202 104L186 112.5Z" fill="#818181"/>
<path d="M397.5 188.5L378.539 196.679C374.811 198.287 372.88 202.433 374.046 206.321V206.321C375.375 210.749 380.169 213.132 384.501 211.517L406 203.5L397.5 188.5Z" stroke="#818181"/>
<path d="M363.5 138L347.272 153.49C344.047 156.568 343.826 161.644 346.772 164.991V164.991C349.895 168.54 355.347 168.772 358.76 165.501L376.5 148.5L363.5 138Z" stroke="#818181"/>
<path d="M310.5 104L299.755 127.409C297.94 131.363 299.587 136.044 303.479 137.989V137.989C307.387 139.943 312.141 138.43 314.2 134.577L326 112.5L310.5 104Z" stroke="#818181"/>
<path d="M247.5 98.5V120C247.5 124.694 251.306 128.5 256 128.5V128.5C260.694 128.5 264.5 124.694 264.5 120V95L247.5 98.5Z" stroke="#818181"/>
<path d="M107.5 203.5L126.975 211.795C131.139 213.568 135.953 211.648 137.752 207.495V207.495C139.55 203.347 137.664 198.525 133.529 196.696L115 188.5L107.5 203.5Z" stroke="#818181"/>
<path d="M138.5 150.5L153.25 165.25C156.702 168.702 162.298 168.702 165.75 165.25V165.25C169.202 161.798 169.202 156.202 165.75 152.75L151 138L138.5 150.5Z" stroke="#818181"/>
<path d="M186 112.5L196.84 134.181C198.87 138.239 203.783 139.915 207.87 137.942V137.942C211.86 136.016 213.633 131.293 211.895 127.216L202 104L186 112.5Z" stroke="#818181"/>
<circle cx="256" cy="256" r="247.5" stroke="#818181" stroke-width="17"/>
<path d="M51.5 256C51.5 143.058 143.058 51.5 256 51.5C368.942 51.5 460.5 143.058 460.5 256C460.5 267.24 459.594 278.262 457.853 289H332.175C329.213 289 326.395 286.89 325.56 283.558C321.022 265.441 314.613 250.855 297.706 236.827C274.007 217.164 237.901 215.68 213.687 235.649C196.954 249.449 190.539 264.892 186.546 283.226C185.776 286.76 182.856 289 179.815 289H54.1475C52.406 278.262 51.5 267.24 51.5 256Z" stroke="#818181" stroke-width="17"/>
<path d="M317 245.5L326.5 262L360.896 211.013C365.627 203.999 364.836 194.638 358.994 188.518L358.528 188.03C352.453 181.665 342.666 180.625 335.389 185.571L284 220.5L301.5 229L343.752 198.751C344.737 198.046 346.1 198.22 346.876 199.152C347.541 199.949 347.593 201.091 347.004 201.945L317 245.5Z" fill="#818181"/>
<path d="M301.5 229L317 245.5M301.5 229L284 220.5L335.389 185.571C342.666 180.625 352.453 181.665 358.528 188.03L358.994 188.518C364.836 194.638 365.627 203.999 360.896 211.013L326.5 262L317 245.5M301.5 229L343.752 198.751C344.737 198.046 346.1 198.22 346.876 199.152V199.152C347.541 199.949 347.593 201.091 347.004 201.945L317 245.5" stroke="#818181"/>
<path d="M386 259H416.848C416.949 256.66 417 254.306 417 251.941C417 163.056 344.918 91 256 91C167.082 91 95 163.056 95 251.941C95 254.306 95.051 256.66 95.1521 259H127.5" stroke="#818181" stroke-width="16" stroke-linecap="round"/>
<circle cx="256" cy="290" r="32" stroke="#818181" stroke-width="22"/>
<path d="M213.75 349.5C209.194 349.5 205.5 353.194 205.5 357.75V409.5C205.5 423.583 216.917 435 231 435V435C245.083 435 256.5 423.583 256.5 409.5V358.25C256.5 353.418 252.582 349.5 247.75 349.5V349.5C242.918 349.5 239 353.418 239 358.25V409.5C239 414.194 235.194 418 230.5 418V418C225.806 418 222 414.194 222 409.5V357.75C222 353.194 218.306 349.5 213.75 349.5V349.5Z" fill="#818181"/>
<path d="M153.5 426.25C153.5 431.082 157.418 435 162.25 435V435C167.082 435 171 431.082 171 426.25V401.5H187.5C192.471 401.5 196.5 397.471 196.5 392.5V392.5C196.5 387.529 192.471 383.5 187.5 383.5H171V367.5H186.5C191.471 367.5 195.5 363.471 195.5 358.5V358.5C195.5 353.529 191.471 349.5 186.5 349.5H171.5C161.559 349.5 153.5 357.559 153.5 367.5V426.25Z" fill="#818181"/>
<path d="M282.5 349.5C272.559 349.5 264.5 357.559 264.5 367.5V417C264.5 426.941 272.559 435 282.5 435H298.5C303.194 435 307 431.194 307 426.5V426.5C307 421.806 303.194 418 298.5 418H282V401.5H298C302.971 401.5 307 397.471 307 392.5V392.5C307 387.529 302.971 383.5 298 383.5H282V367.5H298C302.971 367.5 307 363.471 307 358.5V358.5C307 353.529 302.971 349.5 298 349.5H282.5Z" fill="#818181"/>
<path d="M324.25 349.5C319.418 349.5 315.5 353.418 315.5 358.25V426C315.5 430.971 319.529 435 324.5 435H359C363.694 435 367.5 431.194 367.5 426.5V426.5C367.5 421.806 363.694 418 359 418H333V358.25C333 353.418 329.082 349.5 324.25 349.5V349.5Z" fill="#818181"/>
<path d="M213.75 349.5C209.194 349.5 205.5 353.194 205.5 357.75V409.5C205.5 423.583 216.917 435 231 435V435C245.083 435 256.5 423.583 256.5 409.5V358.25C256.5 353.418 252.582 349.5 247.75 349.5V349.5C242.918 349.5 239 353.418 239 358.25V409.5C239 414.194 235.194 418 230.5 418V418C225.806 418 222 414.194 222 409.5V357.75C222 353.194 218.306 349.5 213.75 349.5V349.5Z" stroke="#818181"/>
<path d="M153.5 426.25C153.5 431.082 157.418 435 162.25 435V435C167.082 435 171 431.082 171 426.25V401.5H187.5C192.471 401.5 196.5 397.471 196.5 392.5V392.5C196.5 387.529 192.471 383.5 187.5 383.5H171V367.5H186.5C191.471 367.5 195.5 363.471 195.5 358.5V358.5C195.5 353.529 191.471 349.5 186.5 349.5H171.5C161.559 349.5 153.5 357.559 153.5 367.5V426.25Z" stroke="#818181"/>
<path d="M282.5 349.5C272.559 349.5 264.5 357.559 264.5 367.5V417C264.5 426.941 272.559 435 282.5 435H298.5C303.194 435 307 431.194 307 426.5V426.5C307 421.806 303.194 418 298.5 418H282V401.5H298C302.971 401.5 307 397.471 307 392.5V392.5C307 387.529 302.971 383.5 298 383.5H282V367.5H298C302.971 367.5 307 363.471 307 358.5V358.5C307 353.529 302.971 349.5 298 349.5H282.5Z" stroke="#818181"/>
<path d="M324.25 349.5C319.418 349.5 315.5 353.418 315.5 358.25V426C315.5 430.971 319.529 435 324.5 435H359C363.694 435 367.5 431.194 367.5 426.5V426.5C367.5 421.806 363.694 418 359 418H333V358.25C333 353.418 329.082 349.5 324.25 349.5V349.5Z" stroke="#818181"/>
</svg>
