<svg width="333" height="520" viewBox="0 0 333 520" fill="none" xmlns="http://www.w3.org/2000/svg">
<path fill-rule="evenodd" clip-rule="evenodd" d="M173.196 263.32C170.279 257.313 161.721 257.313 158.804 263.32L140.75 300.5L119.425 344.417C116.838 349.745 115.407 355.561 115.226 361.481L115.073 366.474C114.212 394.673 136.838 418 165.05 418H166.95C195.162 418 217.788 394.673 216.927 366.474L216.774 361.481C216.593 355.561 215.162 349.745 212.575 344.417L191.25 300.5L173.196 263.32ZM131.75 360.009C131.586 354.428 132.841 348.896 135.397 343.932L166 284.5L197.487 344.775C199.799 349.201 201.076 354.093 201.223 359.084L201.448 366.744C202.024 386.319 186.312 402.5 166.728 402.5V402.5C147.942 402.5 132.561 387.564 132.008 368.786L131.75 360.009Z" fill="#818181"/>
<path fill-rule="evenodd" clip-rule="evenodd" d="M274 517C304.928 517 330 491.928 330 461V129C330 98.0721 304.928 73 274 73H130H114.5H66.5H51V73C24.4903 73 3 94.4903 3 121V461C3 491.928 28.072 517 59 517H274ZM19.5 464C19.5 482.778 34.7223 498 53.5 498H278C296.778 498 312 482.778 312 464V269.5L133 90.5H53.5C34.7223 90.5 19.5 105.722 19.5 124.5V464ZM312 245.5V124.5C312 105.722 296.778 90.5 278 90.5H157L193.5 127H281.5V215L312 245.5ZM264.5 145V198L211.5 145H264.5Z" fill="#818181"/>
<path fill-rule="evenodd" clip-rule="evenodd" d="M51 50.5V73H66.5V50.5H114.5V73H130V50.5H130.5C138.784 50.5 145.5 43.7843 145.5 35.5V18C145.5 9.71573 138.784 3 130.5 3H49C40.7157 3 34 9.71573 34 18V35.5C34 43.7843 40.7157 50.5 49 50.5H51ZM130 36H51V19H130V36Z" fill="#818181"/>
<path d="M51 73V73C24.4903 73 3 94.4903 3 121V461C3 491.928 28.072 517 59 517H274C304.928 517 330 491.928 330 461V129C330 98.0721 304.928 73 274 73H130M51 73V50.5H49C40.7157 50.5 34 43.7843 34 35.5V18C34 9.71573 40.7157 3 49 3H130.5C138.784 3 145.5 9.71573 145.5 18V35.5C145.5 43.7843 138.784 50.5 130.5 50.5H130V73M51 73H66.5M130 73H114.5M66.5 73V50.5H114.5V73M66.5 73H114.5M133 90.5H53.5C34.7223 90.5 19.5 105.722 19.5 124.5V464C19.5 482.778 34.7223 498 53.5 498H278C296.778 498 312 482.778 312 464V269.5L133 90.5ZM312 245.5V124.5C312 105.722 296.778 90.5 278 90.5H157L193.5 127H281.5V215L312 245.5ZM264.5 198V145H211.5L264.5 198ZM282 276L281.549 449.049C281.522 459.524 273.024 468 262.549 468H70C59.5066 468 51 459.493 51 449V146C51 135.507 59.5066 127 70 127H133L282 276ZM265 283L264.521 442.021C264.509 445.879 261.379 449 257.521 449H73.5C69.634 449 66.5 445.866 66.5 442V152C66.5 148.134 69.634 145 73.5 145H127L265 283ZM166 284.5L135.397 343.932C132.841 348.896 131.586 354.428 131.75 360.009L132.008 368.786C132.561 387.564 147.942 402.5 166.728 402.5V402.5C186.312 402.5 202.024 386.319 201.448 366.744L201.223 359.084C201.076 354.093 199.799 349.201 197.487 344.775L166 284.5ZM51 36H130V19H51V36ZM140.75 300.5L158.804 263.32C161.721 257.313 170.279 257.313 173.196 263.32L191.25 300.5L212.575 344.417C215.162 349.745 216.593 355.561 216.774 361.481L216.927 366.474C217.788 394.673 195.162 418 166.95 418H165.05C136.838 418 114.212 394.673 115.073 366.474L115.226 361.481C115.407 355.561 116.838 349.745 119.425 344.417L140.75 300.5Z" stroke="#818181" stroke-width="6"/>
</svg>
