<svg width="518" height="518" viewBox="0 0 518 518" fill="none" xmlns="http://www.w3.org/2000/svg">
<path fill-rule="evenodd" clip-rule="evenodd" d="M1 517H517L408.32 132.148H334.345L341.363 46.8841C343.449 21.5427 322.716 0.174805 297.323 1.49546L257.63 3.55986L219.972 1.5807C194.193 0.225836 173.344 22.2418 175.711 47.9479C178.797 81.4594 180.345 103.933 182.742 132.148H110.593L1 517ZM300.554 103.148C300.554 119.164 287.57 132.148 271.554 132.148H245.533C229.516 132.148 216.533 119.164 216.533 103.148V75.4225C216.533 59.4063 229.516 46.4225 245.533 46.4225H271.554C287.57 46.4225 300.554 59.4063 300.554 75.4225V103.148Z" fill="#818181" stroke="#818181"/>
</svg>
