<svg width="22" height="24" viewBox="0 0 22 24" fill="none" xmlns="http://www.w3.org/2000/svg">
<path d="M11.75 8.9385C12.8625 8.75045 13.8639 8.1513 14.5555 7.2598C15.2471 6.3683 15.5786 5.2495 15.4842 4.12512C15.3899 3.00075 14.8766 1.95284 14.046 1.18908C13.2155 0.425323 12.1283 0.00144196 11 0.00144196C9.87167 0.00144196 8.78451 0.425323 7.95397 1.18908C7.12343 1.95284 6.61012 3.00075 6.51576 4.12512C6.4214 5.2495 6.75289 6.3683 7.44452 7.2598C8.13615 8.1513 9.13745 8.75045 10.25 8.9385V13.5H7.25C6.65326 13.5 6.08097 13.7371 5.65901 14.159C5.23705 14.581 5 15.1533 5 15.75V16.5H17V15.75C17 15.1533 16.7629 14.581 16.341 14.159C15.919 13.7371 15.3467 13.5 14.75 13.5H11.75V8.9385ZM0.5 21C0.5 20.2044 0.81607 19.4413 1.37868 18.8787C1.94129 18.3161 2.70435 18 3.5 18H18.5C19.2956 18 20.0587 18.3161 20.6213 18.8787C21.1839 19.4413 21.5 20.2044 21.5 21V23.25C21.5 23.4489 21.421 23.6397 21.2803 23.7803C21.1397 23.921 20.9489 24 20.75 24H1.25C1.05109 24 0.860322 23.921 0.71967 23.7803C0.579018 23.6397 0.5 23.4489 0.5 23.25V21Z" fill="#1E1E1E"/>
</svg>
