<svg width="239" height="63" viewBox="0 0 239 63" fill="none" xmlns="http://www.w3.org/2000/svg">
<path d="M236 61.5V26.5H189L199.5 40H219.5V46H205.347C198.895 46 191.739 45.1201 187.705 40.0843C187.589 39.9394 187.475 39.7915 187.363 39.6404C185.928 37.7082 185.5 35.2503 185.5 32.8439V31.0603C185.5 29.0439 185.889 27.0237 186.877 25.2659C187.763 23.6895 188.689 22.4125 189.792 21.3183C193.761 17.383 199.872 17 205.461 17H227.5L237.5 1H205.087C198.728 1 192.25 1.56517 186.513 4.30796C181.025 6.93146 177.13 10.3528 173.483 15.7411C170.18 20.6223 169 26.5725 169 32.4665C169 36.7809 169.72 41.1241 171.755 44.9287C177.493 55.6604 184.123 58.3971 195.5 61.5H236Z" fill="white" stroke="white"/>
<path d="M68.5 1.5L58 17H31.9904C28.0914 17 24.1553 18.0397 21.2059 20.5899C19.4393 22.1175 18.1127 23.6975 17.1556 25.8252C15.2764 30.0027 15.2281 35.1207 17.6497 39.009C18.5589 40.469 19.7835 41.7138 21.4533 42.8778C25.7515 45.8738 31.1962 46.5 36.4356 46.5H68.5L58 61.5H33.5817C28.5821 61.5 23.5876 60.5511 19.112 58.3228C11.3671 54.4666 6.50863 50.5466 3.46297 42.2743C1.14865 35.9883 0.870198 29.0256 2.58464 22.5503C4.8327 14.0595 9.42553 8.55869 18.6332 4.32425C23.3824 2.14014 28.6622 1.5 33.8896 1.5H68.5Z" fill="white" stroke="white"/>
<path d="M84.8406 62H71.873C71.1946 62 70.7131 61.3389 70.9212 60.6932L89.1063 4.27291C89.6389 2.62025 91.177 1.5 92.9134 1.5H95.2298C96.6378 1.5 97.9421 2.24023 98.664 3.44903L119 37.5L138.842 3.48452C139.559 2.25564 140.875 1.5 142.297 1.5H144.087C145.823 1.5 147.361 2.62025 147.894 4.27291L166.079 60.6932C166.287 61.3389 165.805 62 165.127 62H152.659C150.807 62 149.197 60.7284 148.768 58.9265L142 30.5L123.673 60.1054C122.944 61.2833 121.657 62 120.272 62H117.228C115.843 62 114.556 61.2833 113.827 60.1054L95.5 30.5L88.7318 58.9265C88.3028 60.7284 86.6928 62 84.8406 62Z" fill="white" stroke="white"/>
</svg>
