<svg width="30" height="30" viewBox="0 0 30 30" fill="none" xmlns="http://www.w3.org/2000/svg">
<g clip-path="url(#clip0_37_6)">
<g filter="url(#filter0_d_37_6)">
<path d="M24.3251 12.5C24.2017 12.6822 24.1287 12.8938 24.1134 13.1132C24.098 13.3327 24.1408 13.5524 24.2375 13.75C24.5478 14.4741 24.7662 15.2342 24.8876 16.0125C25.2093 18.0252 24.9084 20.0881 24.025 21.925C23.9178 22.1265 23.7574 22.2947 23.5613 22.4115C23.3652 22.5283 23.1408 22.5892 22.9125 22.5875H7.10005C6.87051 22.588 6.64528 22.5252 6.44904 22.4062C6.2528 22.2871 6.09314 22.1163 5.98755 21.9125C5.1874 20.2893 4.84273 18.4794 4.99028 16.6757C5.13783 14.872 5.77208 13.1422 6.8254 11.6706C7.87873 10.199 9.31165 9.04088 10.9714 8.31961C12.6312 7.59834 14.4555 7.34099 16.25 7.575C17.158 7.68172 18.0461 7.91743 18.8875 8.275C19.0852 8.37171 19.3048 8.41455 19.5243 8.39919C19.7438 8.38382 19.9553 8.3108 20.1376 8.1875C20.3274 8.06243 20.4795 7.88795 20.5776 7.68284C20.6757 7.47774 20.7159 7.24977 20.6941 7.02348C20.6722 6.79719 20.5891 6.58114 20.4536 6.3986C20.3181 6.21605 20.1353 6.07392 19.925 5.9875C17.5103 4.95207 14.8307 4.70386 12.2668 5.27812C9.70295 5.85238 7.38523 7.21992 5.64287 9.18647C3.90051 11.153 2.82211 13.6186 2.56086 16.233C2.29961 18.8473 2.86879 21.4775 4.18755 23.75C4.40569 24.1278 4.71891 24.442 5.09609 24.6613C5.47327 24.8806 5.90127 24.9974 6.33755 25H23.6501C24.0906 25.0017 24.5237 24.8871 24.9057 24.6676C25.2876 24.448 25.6048 24.1315 25.8251 23.75C26.7905 22.0768 27.3551 20.2026 27.4743 18.2745C27.5936 16.3464 27.2644 14.4169 26.5126 12.6375C26.4173 12.4347 26.2693 12.2612 26.0841 12.1352C25.8988 12.0092 25.6831 11.9353 25.4595 11.9213C25.2359 11.9072 25.0126 11.9535 24.813 12.0553C24.6135 12.1571 24.4449 12.3107 24.3251 12.5Z" fill="#1E1E1E"/>
</g>
<path d="M13.2375 15.7375C12.7684 16.2066 12.5049 16.8428 12.5049 17.5062C12.5049 17.8347 12.5696 18.16 12.6953 18.4635C12.821 18.767 13.0052 19.0427 13.2375 19.275C13.4698 19.5073 13.7455 19.6915 14.049 19.8172C14.3525 19.9429 14.6778 20.0076 15.0063 20.0076C15.6697 20.0076 16.3059 19.7441 16.775 19.275L23.85 8.6625L13.2375 15.7375Z" fill="#1E1E1E"/>
</g>
<defs>
<filter id="filter0_d_37_6" x="-1.5011" y="4.97588" width="32.9993" height="28.0241" filterUnits="userSpaceOnUse" color-interpolation-filters="sRGB">
<feFlood flood-opacity="0" result="BackgroundImageFix"/>
<feColorMatrix in="SourceAlpha" type="matrix" values="0 0 0 0 0 0 0 0 0 0 0 0 0 0 0 0 0 0 127 0" result="hardAlpha"/>
<feOffset dy="4"/>
<feGaussianBlur stdDeviation="2"/>
<feComposite in2="hardAlpha" operator="out"/>
<feColorMatrix type="matrix" values="0 0 0 0 0 0 0 0 0 0 0 0 0 0 0 0 0 0 0.25 0"/>
<feBlend mode="normal" in2="BackgroundImageFix" result="effect1_dropShadow_37_6"/>
<feBlend mode="normal" in="SourceGraphic" in2="effect1_dropShadow_37_6" result="shape"/>
</filter>
<clipPath id="clip0_37_6">
<rect width="30" height="30" fill="white"/>
</clipPath>
</defs>
</svg>
